<?xml version="1.0" encoding="UTF-8" standalone="no"?>
<svg
   xmlns:dc="http://purl.org/dc/elements/1.1/"
   xmlns:cc="http://creativecommons.org/ns#"
   xmlns:rdf="http://www.w3.org/1999/02/22-rdf-syntax-ns#"
   xmlns:svg="http://www.w3.org/2000/svg"
   xmlns="http://www.w3.org/2000/svg"
   xmlns:xlink="http://www.w3.org/1999/xlink"
   xmlns:sodipodi="http://sodipodi.sourceforge.net/DTD/sodipodi-0.dtd"
   xmlns:inkscape="http://www.inkscape.org/namespaces/inkscape"
   id="svg2"
   viewBox="0 0 200.99999 200.99999"
   version="1.0"
   inkscape:version="0.48.4 r9939"
   width="100%"
   height="100%"
   sodipodi:docname="machine.svg"
   inkscape:export-filename="/home/crep/git/xml-editor/icons/xml-editor/48x48/machine.png"
   inkscape:export-xdpi="21.600002"
   inkscape:export-ydpi="21.600002">
  <sodipodi:namedview
     pagecolor="#ffffff"
     bordercolor="#666666"
     borderopacity="1"
     objecttolerance="10"
     gridtolerance="10"
     guidetolerance="10"
     inkscape:pageopacity="0"
     inkscape:pageshadow="2"
     inkscape:window-width="1625"
     inkscape:window-height="1026"
     id="namedview3985"
     showgrid="false"
     fit-margin-top="0"
     fit-margin-left="0"
     fit-margin-right="0"
     fit-margin-bottom="0"
     inkscape:zoom="1.6772085"
     inkscape:cx="192.66943"
     inkscape:cy="74.026334"
     inkscape:window-x="55"
     inkscape:window-y="24"
     inkscape:window-maximized="1"
     inkscape:current-layer="svg2" />
  <defs
     id="defs3">
    <linearGradient
       inkscape:collect="always"
       id="linearGradient4112">
      <stop
         style="stop-color:#3465a4;stop-opacity:1;"
         offset="0"
         id="stop4114" />
      <stop
         style="stop-color:#3465a4;stop-opacity:0;"
         offset="1"
         id="stop4116" />
    </linearGradient>
    <linearGradient
       id="linearGradient2367"
       y2="309.14999"
       gradientUnits="userSpaceOnUse"
       x2="420.85999"
       gradientTransform="translate(119.2,141.42)"
       y1="309.14999"
       x1="172.71001">
      <stop
         id="stop2827"
         stop-color="#9494a0"
         offset="0" />
      <stop
         id="stop2833"
         stop-color="#9494a0"
         stop-opacity=".49804"
         offset=".63793" />
      <stop
         id="stop2829"
         stop-color="#9494a0"
         stop-opacity="0"
         offset="1" />
    </linearGradient>
    <linearGradient
       inkscape:collect="always"
       xlink:href="#linearGradient4112"
       id="linearGradient4118"
       x1="256.37839"
       y1="318.38617"
       x2="748.5329"
       y2="141.54892"
       gradientUnits="userSpaceOnUse" />
  </defs>
  <flowRoot
     id="flowRoot6395"
     xml:space="preserve"
     font-size="28px"
     line-height="125%"
     style="font-size:28px;line-height:125%;font-family:Arial Black"
     transform="matrix(0.90896,0.0071199,-0.0071199,0.90896,68.622902,-106.29627)"><flowRegion
       id="flowRegion6397"><rect
         id="rect6399"
         y="147.27"
         width="53.537998"
         height="15.152"
         x="212.13" /></flowRegion><flowPara
       id="flowPara6401">LG</flowPara></flowRoot>  <g
     id="g4138"
     transform="matrix(0.31485897,0,0,0.31485897,37.696842,12.000044)">
    <path
       style="fill:url(#linearGradient4118);fill-opacity:1;stroke:#000000;stroke-width:0.90898794px"
       inkscape:connector-curvature="0"
       d="m 158.18848,536.16338 -3.79246,-510.378435 219.5226,4.08295 -0.16286,8.025361 4.03552,480.510064 1.21952,9.09972 -220.82232,8.66034 z"
       id="path1932" />
    <path
       style="fill:#3465a4;fill-rule:evenodd;stroke:#000000;stroke-width:0.90898788px"
       inkscape:connector-curvature="0"
       d="M 154.39666,25.703139 20.50016,42.916452 19.917875,478.16682 158.03168,536.45303 154.39666,25.703139 z"
       id="path1934" />
    <path
       style="fill:none;stroke:#000000;stroke-width:0.90898788px"
       inkscape:connector-curvature="0"
       d="M 20.826481,69.725883 145.06228,56.881985 146.5298,532.17238 20.613455,477.56323 20.826481,69.725883 z"
       id="path2837" />
    <path
       style="fill:#eeeeef"
       inkscape:connector-curvature="0"
       d="m 28.365153,75.38629 a 3.2137812,5.0502276 0.44878969 1 1 -6.426347,-0.05034 3.2137812,5.0502276 0.44878969 1 1 6.426347,0.05034 z"
       id="path2839" />
    <path
       style="fill:#eeeeef"
       inkscape:connector-curvature="0"
       d="m 146.01865,523.3891 a 3.2137812,5.0502276 0.44878969 1 1 -6.42634,-0.0503 3.2137812,5.0502276 0.44878969 1 1 6.42634,0.0503 z"
       id="path4611" />
    <path
       style="fill:#eeeeef"
       inkscape:connector-curvature="0"
       d="m 27.948813,473.20469 a 3.2137812,5.0502276 0.44878969 1 1 -6.426347,-0.0503 3.2137812,5.0502276 0.44878969 1 1 6.426347,0.0503 z"
       id="path4613" />
    <path
       style="fill:#eeeeef"
       inkscape:connector-curvature="0"
       d="m 144.91312,63.39119 a 3.2137812,5.0502276 0.44878969 1 1 -6.42634,-0.05034 3.2137812,5.0502276 0.44878969 1 1 6.42634,0.05034 z"
       id="path4615" />
    <path
       style="fill:#2e3436;fill-rule:evenodd;stroke:#000000;stroke-width:0.90898788px"
       inkscape:connector-curvature="0"
       d="m 357.85864,60.903173 0.95865,112.034617 -183.64075,-0.98396 -0.0118,-115.699618 181.7939,2.342101 0.90003,2.30686 z"
       id="path4617" />
    <path
       style="fill:#204a87;fill-rule:evenodd;stroke:#000000;stroke-width:0.90898788px"
       inkscape:connector-curvature="0"
       d="m 181.36479,64.302117 169.4432,1.981743 0.2551,26.61798 -169.77665,-0.02997 0.0784,-28.569752 z"
       id="path4619" />
    <path
       style="fill:#edf2f8;fill-rule:evenodd;stroke:#fbeeee;stroke-width:0.48834467px"
       inkscape:connector-curvature="0"
       d="m 344.24899,86.648977 -20.69737,-0.116672 0.0112,-1.427067 20.78756,0.20828 -0.10137,1.335459 z"
       id="path4621" />
    <path
       style="fill-rule:evenodd;stroke:#000000;stroke-width:0.90898788px"
       inkscape:connector-curvature="0"
       d="m 184.55638,71.144735 161.00805,1.91567 0.28144,5.847176 -161.0197,-1.588516 -0.26979,-6.17433 z"
       id="path6393" />
    <path
       style="fill:#204a87;fill-rule:evenodd;stroke:#000000;stroke-width:1.00443161px"
       inkscape:connector-curvature="0"
       d="m 182.51627,98.335596 168.46385,-0.643893 0.19253,33.444197 -167.8392,-0.18751 -0.81718,-32.612794 z"
       id="path6411" />
    <path
       style="fill:#204a87;fill-rule:evenodd;stroke:#000000;stroke-width:0.9978869px"
       inkscape:connector-curvature="0"
       d="m 181.76142,135.51752 169.83835,0.27589 0.65582,33.48419 -169.21341,-1.14365 -1.28076,-32.61643 z"
       id="path6413" />
    <path
       style="fill:#204a87;fill-rule:evenodd;stroke:#000000;stroke-width:0.90898788px"
       inkscape:connector-curvature="0"
       d="m 299.45282,189.9168 -50.48909,-0.85908 -3.17458,-5.53351 -5.96111,-1.4193 -11.93102,-0.55706 -6.46949,5.45796 -1.3941,2.7434 -44.07191,-0.79972 0.82812,11.48735 44.52276,1.26686 3.17821,5.06993 7.77367,3.2788 10.09854,0.0791 7.84392,-4.52909 0.0324,-4.13577 48.66572,0.3812 0.54796,-11.93108 z"
       id="path6415" />
    <path
       style="fill:#2e3436;fill-rule:evenodd;stroke:#2e3436;stroke-width:0.90898788px"
       inkscape:connector-curvature="0"
       d="m 293.91035,194.23666 -113.39098,-1.11545 0.20389,2.98317 112.24391,1.33371 0.94318,-3.20143 z"
       id="path6417" />
    <path
       id="path6419"
       d="m 290.44918,288.24125 a 20.155808,21.088262 0.44879226 1 1 -40.31038,-0.31575 20.155808,21.088262 0.44879226 1 1 40.31038,0.31575 z"
       inkscape:connector-curvature="0"
       style="fill:#555753;stroke:#d3d7cf;stroke-width:1.49040008" />
    <path
       id="path6421"
       d="m 281.32754,287.09014 a 11.357534,11.021088 0.44878811 0 1 -22.71437,-0.17792 11.357534,11.021088 0.44878811 0 1 22.71437,0.17792 z"
       inkscape:connector-curvature="0"
       style="fill:#eeeeec;stroke:#fbeeee;stroke-width:1.96493149" />
    <path
       style="fill:#171619;fill-rule:evenodd;stroke:#000000;stroke-width:0.64666307px"
       inkscape:connector-curvature="0"
       d="m 156.741,223.10519 218.78667,1.71376 -0.0163,2.08151 -218.794,-0.77753 0.0236,-3.01774 z"
       id="path6429" />
    <path
       style="fill:#babdb6;stroke:#2e3436;stroke-width:1.414487"
       inkscape:connector-curvature="0"
       d="m 298.01688,357.48902 a 26.966059,31.557632 0.44878955 1 1 -53.92829,-0.42242 26.966059,31.557632 0.44878955 1 1 53.92829,0.42242 z"
       id="path6431" />
    <path
       id="path7322"
       d="m 309.34687,515.83299 7.00844,-7.92169 1.08596,-12.35559 -6.64665,-8.97604 -63.63055,0.45702 -6.99742,8.55789 0.23621,13.63272 6.00137,8.98723 62.94264,-2.38154 z"
       inkscape:connector-curvature="0"
       style="fill:#204a87;fill-rule:evenodd;stroke:#3465a4;stroke-width:3.45414162" />
    <path
       id="path9102"
       d="m 292.42123,501.34623 a 3.2901514,3.9394513 89.007357 1 1 -7.87772,0.1365 3.2901514,3.9394513 89.007357 1 1 7.87772,-0.1365 z"
       inkscape:connector-curvature="0"
       style="fill:#eeeeec;stroke:#4e9a06;stroke-width:2.86006141" />
    <path
       id="path7330"
       d="m 307.6717,501.08199 a 3.2901514,3.9394513 89.007357 1 1 -7.87772,0.1365 3.2901514,3.9394513 89.007357 1 1 7.87772,-0.1365 z"
       inkscape:connector-curvature="0"
       style="fill:#d3d7cf;stroke:#a40000;stroke-width:2.86006141" />
    <path
       id="path7326"
       d="m 249.66106,499.97568 18.17696,-0.31495 -0.73311,-4.5329 -18.50415,0.32061 1.0603,4.52724 z"
       inkscape:connector-curvature="0"
       style="fill:#101012;fill-rule:evenodd;stroke:#000000;stroke-width:0.90898466px" />
    <path
       id="path7328"
       d="m 250.15363,510.0402 18.17697,-0.31494 -0.72402,-4.53306 -18.50415,0.32061 1.0512,4.52739 z"
       inkscape:connector-curvature="0"
       style="fill:#050507;fill-rule:evenodd;stroke:#000000;stroke-width:0.90898466px" />
  </g>
  <metadata
     id="metadata3983">
    <rdf:RDF>
      <cc:Work>
        <dc:format>image/svg+xml</dc:format>
        <dc:type
           rdf:resource="http://purl.org/dc/dcmitype/StillImage" />
        <cc:license
           rdf:resource="http://creativecommons.org/licenses/publicdomain/" />
        <dc:publisher>
          <cc:Agent
             rdf:about="http://openclipart.org/">
            <dc:title>Openclipart</dc:title>
          </cc:Agent>
        </dc:publisher>
        <dc:title>Computer system case</dc:title>
        <dc:date>2006-12-19T14:01:47</dc:date>
        <dc:description>box, case, clip art, clipart, computer, desktop, hardware, image, media, personal, png, public domain, svg, system, </dc:description>
        <dc:source>http://openclipart.org/detail/2154/computer-system-case-by-machovka</dc:source>
        <dc:creator>
          <cc:Agent>
            <dc:title>Machovka</dc:title>
          </cc:Agent>
        </dc:creator>
        <dc:subject>
          <rdf:Bag>
            <rdf:li>box</rdf:li>
            <rdf:li>case</rdf:li>
            <rdf:li>clip art</rdf:li>
            <rdf:li>clipart</rdf:li>
            <rdf:li>computer</rdf:li>
            <rdf:li>desktop</rdf:li>
            <rdf:li>hardware</rdf:li>
            <rdf:li>image</rdf:li>
            <rdf:li>media</rdf:li>
            <rdf:li>personal</rdf:li>
            <rdf:li>png</rdf:li>
            <rdf:li>public domain</rdf:li>
            <rdf:li>svg</rdf:li>
            <rdf:li>system</rdf:li>
          </rdf:Bag>
        </dc:subject>
      </cc:Work>
      <cc:License
         rdf:about="http://creativecommons.org/licenses/publicdomain/">
        <cc:permits
           rdf:resource="http://creativecommons.org/ns#Reproduction" />
        <cc:permits
           rdf:resource="http://creativecommons.org/ns#Distribution" />
        <cc:permits
           rdf:resource="http://creativecommons.org/ns#DerivativeWorks" />
      </cc:License>
    </rdf:RDF>
  </metadata>
  <rect
     style="fill:none;stroke:none;stroke-width:1"
     id="rect3012-3"
     width="200"
     height="200"
     x="0.49998811"
     y="0.5"
     rx="10"
     ry="10" />
</svg>
