<?xml version="1.0" encoding="UTF-8" standalone="no"?>
<!-- Created with Inkscape (http://www.inkscape.org/) -->

<svg
   xmlns:dc="http://purl.org/dc/elements/1.1/"
   xmlns:cc="http://creativecommons.org/ns#"
   xmlns:rdf="http://www.w3.org/1999/02/22-rdf-syntax-ns#"
   xmlns:svg="http://www.w3.org/2000/svg"
   xmlns="http://www.w3.org/2000/svg"
   xmlns:sodipodi="http://sodipodi.sourceforge.net/DTD/sodipodi-0.dtd"
   xmlns:inkscape="http://www.inkscape.org/namespaces/inkscape"
   width="201"
   height="201"
   id="svg5208"
   version="1.1"
   inkscape:version="0.48.4 r9939"
   sodipodi:docname="process.svg"
   inkscape:export-filename="/home/crep/git/xml-editor/icons/xml-editor/48x48/process.png"
   inkscape:export-xdpi="21.6"
   inkscape:export-ydpi="21.6">
  <defs
     id="defs5210" />
  <sodipodi:namedview
     id="base"
     pagecolor="#ffffff"
     bordercolor="#666666"
     borderopacity="1.0"
     inkscape:pageopacity="0.0"
     inkscape:pageshadow="2"
     inkscape:zoom="1.979899"
     inkscape:cx="81.382533"
     inkscape:cy="39.720824"
     inkscape:document-units="px"
     inkscape:current-layer="layer1"
     showgrid="false"
     inkscape:window-width="1625"
     inkscape:window-height="1026"
     inkscape:window-x="55"
     inkscape:window-y="24"
     inkscape:window-maximized="1"
     fit-margin-top="0"
     fit-margin-left="0"
     fit-margin-right="0"
     fit-margin-bottom="0" />
  <metadata
     id="metadata5213">
    <rdf:RDF>
      <cc:Work
         rdf:about="">
        <dc:format>image/svg+xml</dc:format>
        <dc:type
           rdf:resource="http://purl.org/dc/dcmitype/StillImage" />
        <dc:title></dc:title>
      </cc:Work>
    </rdf:RDF>
  </metadata>
  <g
     inkscape:label="Calque 1"
     inkscape:groupmode="layer"
     id="layer1"
     transform="translate(-45.214287,-303.29074)">
    <rect
       style="fill:none;stroke:none;stroke-width:1"
       id="rect3012"
       width="200"
       height="200"
       x="45.714287"
       y="303.79074"
       rx="10"
       ry="10" />
    <g
       transform="matrix(0.28891138,0,0,0.28891138,86.845583,322.60072)"
       id="g2989">
      <path
         id="path5740"
         style="text-indent:0;text-transform:none;block-progression:tb;color:#000000;fill:#729fcf;fill-rule:evenodd"
         d="m 163.37542,9 v 74.226 c -91.83,18.86 -161.52,100.63 -161.52,197.79 0,96.668 69.012,178.12 160.15,197.51 l -67.008,-67.008 41.058,-41.058 c -26.951,-20.333 -44.214,-52.667 -44.214,-89.444 0,-48.051 29.471,-88.501 71.524,-104.52 v 115.53 l 141.52,-141.52 -141.51,-141.51 z"
         inkscape:connector-curvature="0" />
      <path
         id="path2985"
         style="text-indent:0;text-transform:none;block-progression:tb;color:#000000;fill:#204a87;fill-rule:evenodd"
         d="m 245.51542,83.52 67.008,66.993 -41.074,41.074 c 26.961,20.328 44.23,52.647 44.23,89.428 0,48.051 -29.47,88.512 -71.524,104.54 v -115.55 l -141.52,141.52 141.52,141.52 v -74.226 c 91.812,-18.87 161.51,-100.65 161.51,-197.79 0,-96.667 -69.01,-178.1 -160.15,-197.49 z"
         inkscape:connector-curvature="0" />
    </g>
  </g>
</svg>
