<?xml version="1.0" encoding="UTF-8" standalone="no"?>
<svg
   xmlns:dc="http://purl.org/dc/elements/1.1/"
   xmlns:cc="http://creativecommons.org/ns#"
   xmlns:rdf="http://www.w3.org/1999/02/22-rdf-syntax-ns#"
   xmlns:svg="http://www.w3.org/2000/svg"
   xmlns="http://www.w3.org/2000/svg"
   xmlns:xlink="http://www.w3.org/1999/xlink"
   xmlns:sodipodi="http://sodipodi.sourceforge.net/DTD/sodipodi-0.dtd"
   xmlns:inkscape="http://www.inkscape.org/namespaces/inkscape"
   id="svg2"
   viewBox="0 0 201 201"
   version="1.0"
   inkscape:version="0.48.4 r9939"
   width="100%"
   height="100%"
   sodipodi:docname="system.svg"
   inkscape:export-filename="/home/crep/git/xml-editor/icons/xml-editor/48x48/system.png"
   inkscape:export-xdpi="21.6"
   inkscape:export-ydpi="21.6">
  <sodipodi:namedview
     pagecolor="#ffffff"
     bordercolor="#666666"
     borderopacity="1"
     objecttolerance="10"
     gridtolerance="10"
     guidetolerance="10"
     inkscape:pageopacity="0"
     inkscape:pageshadow="2"
     inkscape:window-width="1625"
     inkscape:window-height="1026"
     id="namedview18"
     showgrid="false"
     inkscape:zoom="1.7292974"
     inkscape:cx="122.69181"
     inkscape:cy="99.336281"
     inkscape:window-x="55"
     inkscape:window-y="24"
     inkscape:window-maximized="1"
     inkscape:current-layer="svg2"
     fit-margin-top="0"
     fit-margin-left="0"
     fit-margin-right="0"
     fit-margin-bottom="0" />
  <defs
     id="defs4">
    <linearGradient
       inkscape:collect="always"
       id="linearGradient3039">
      <stop
         style="stop-color:#204a87;stop-opacity:1;"
         offset="0"
         id="stop3041" />
      <stop
         style="stop-color:#204a87;stop-opacity:0;"
         offset="1"
         id="stop3043" />
    </linearGradient>
    <linearGradient
       inkscape:collect="always"
       id="linearGradient3019">
      <stop
         style="stop-color:#3465a4;stop-opacity:1;"
         offset="0"
         id="stop3021" />
      <stop
         style="stop-color:#3465a4;stop-opacity:0;"
         offset="1"
         id="stop3023" />
    </linearGradient>
    <linearGradient
       id="linearGradient4568">
      <stop
         id="stop4570"
         stop-color="#9394b8"
         offset="0" />
      <stop
         id="stop4807"
         stop-color="#fff"
         offset="1" />
    </linearGradient>
    <linearGradient
       id="linearGradient3806"
       y2="263.97"
       xlink:href="#linearGradient4568"
       gradientUnits="userSpaceOnUse"
       x2="182.3"
       gradientTransform="matrix(1.3339,0,0,1.3339,125.21,189.44)"
       y1="129.77"
       x1="182.3" />
    <linearGradient
       id="linearGradient3809"
       y2="277.42999"
       xlink:href="#linearGradient4568"
       gradientUnits="userSpaceOnUse"
       x2="365.01001"
       gradientTransform="matrix(-1,0,0,1,735.81,-20)"
       y1="664.38"
       x1="365.01001" />
    <linearGradient
       id="linearGradient3813"
       y2="-236.13"
       xlink:href="#linearGradient4568"
       gradientUnits="userSpaceOnUse"
       x2="-987.59003"
       gradientTransform="matrix(0.64459,0,0,-0.62978,1002.1,304.33)"
       y1="74.615997"
       x1="-987.59003" />
    <linearGradient
       inkscape:collect="always"
       xlink:href="#linearGradient3039"
       id="linearGradient3045"
       x1="93.228806"
       y1="52.338982"
       x2="1054.9576"
       y2="1378.8051"
       gradientUnits="userSpaceOnUse" />
    <linearGradient
       inkscape:collect="always"
       xlink:href="#linearGradient3039"
       id="linearGradient3054"
       gradientUnits="userSpaceOnUse"
       x1="93.228806"
       y1="52.338982"
       x2="1054.9576"
       y2="1378.8051" />
    <linearGradient
       inkscape:collect="always"
       xlink:href="#linearGradient3039"
       id="linearGradient3056"
       gradientUnits="userSpaceOnUse"
       x1="93.228806"
       y1="52.338982"
       x2="1054.9576"
       y2="1378.8051" />
    <linearGradient
       inkscape:collect="always"
       xlink:href="#linearGradient3039"
       id="linearGradient3058"
       gradientUnits="userSpaceOnUse"
       x1="93.228806"
       y1="52.338982"
       x2="1054.9576"
       y2="1378.8051" />
    <linearGradient
       inkscape:collect="always"
       xlink:href="#linearGradient3019"
       id="linearGradient3060"
       gradientUnits="userSpaceOnUse"
       x1="188.91101"
       y1="112.03813"
       x2="188.91101"
       y2="327.11865" />
    <linearGradient
       inkscape:collect="always"
       xlink:href="#linearGradient3019"
       id="linearGradient3063"
       gradientUnits="userSpaceOnUse"
       x1="188.91101"
       y1="112.03813"
       x2="188.91101"
       y2="327.11865"
       gradientTransform="matrix(0.40075452,0,0,0.40075452,-784.13349,-145.72215)" />
    <linearGradient
       inkscape:collect="always"
       xlink:href="#linearGradient3039"
       id="linearGradient3069"
       gradientUnits="userSpaceOnUse"
       x1="93.228806"
       y1="52.338982"
       x2="1054.9576"
       y2="1378.8051" />
    <linearGradient
       inkscape:collect="always"
       xlink:href="#linearGradient3039"
       id="linearGradient3071"
       gradientUnits="userSpaceOnUse"
       x1="93.228806"
       y1="52.338982"
       x2="1054.9576"
       y2="1378.8051" />
    <linearGradient
       inkscape:collect="always"
       xlink:href="#linearGradient3039"
       id="linearGradient3073"
       gradientUnits="userSpaceOnUse"
       x1="93.228806"
       y1="52.338982"
       x2="1054.9576"
       y2="1378.8051" />
    <linearGradient
       inkscape:collect="always"
       xlink:href="#linearGradient3039"
       id="linearGradient3076"
       gradientUnits="userSpaceOnUse"
       x1="93.228806"
       y1="52.338982"
       x2="1054.9576"
       y2="1378.8051"
       gradientTransform="matrix(0.40075452,0,0,0.40075452,-784.1846,-144.80213)" />
    <linearGradient
       inkscape:collect="always"
       xlink:href="#linearGradient3039"
       id="linearGradient3079"
       gradientUnits="userSpaceOnUse"
       x1="93.228806"
       y1="52.338982"
       x2="1054.9576"
       y2="1378.8051"
       gradientTransform="matrix(0.40075452,0,0,0.40075452,-784.13349,-145.31325)" />
    <linearGradient
       inkscape:collect="always"
       xlink:href="#linearGradient3039"
       id="linearGradient3087"
       gradientUnits="userSpaceOnUse"
       gradientTransform="matrix(0.40075452,0,0,0.40075452,-784.13349,-145.31325)"
       x1="93.228806"
       y1="52.338982"
       x2="1054.9576"
       y2="1378.8051" />
    <linearGradient
       inkscape:collect="always"
       xlink:href="#linearGradient3019"
       id="linearGradient3089"
       gradientUnits="userSpaceOnUse"
       gradientTransform="matrix(0.40075452,0,0,0.40075452,-784.13349,-145.72215)"
       x1="188.91101"
       y1="112.03813"
       x2="188.91101"
       y2="327.11865" />
  </defs>
  <g
     id="g3082"
     transform="translate(807.10877,168.21738)">
    <path
       sodipodi:nodetypes="cccccccscccccccccccccccccccccccccccccccsccccccccccccccccccccsscccccccccccccccccccccccccscccccccccccccccccccscccscscccccccccccccccccccccsccccccccsscccccccccccccsccsscsscccccssccccss"
       inkscape:connector-curvature="0"
       id="path4850"
       transform="translate(0,-1.2173601e-6)"
       d="m -708.5625,-145.3125 c -1.28241,0.0361 -2.56935,0.0953 -3.84375,0.1875 -0.40877,0.0321 -0.81399,0.089 -1.21875,0.125 l -5.59375,18.59375 c -4.06766,0.84159 -8.05982,2.06845 -11.875,3.6875 L -746.875,-134.5625 c -0.529,0.30458 -1.04152,0.56241 -1.5625,0.875 -1.09005,0.65724 -2.16076,1.35317 -3.21875,2.0625 -1.05799,0.70934 -2.09907,1.45732 -3.125,2.21875 -1.02193,0.76144 -2.04139,1.56147 -3.03125,2.375 -0.39274,0.3206 -0.77152,0.66737 -1.15625,1 l 6.59375,18.09375 c -0.016,0.016 -0.0151,0.0465 -0.0312,0.0625 l 0.0312,0.125 c -2.77322,3.02169 -5.2542,6.36916 -7.40625,10 l -19.84375,-0.53125 c -0.39274,0.889675 -0.79958,1.75856 -1.15625,2.65625 -0.48492,1.226309 -0.92697,2.453176 -1.34375,3.6875 -0.4208,1.234324 -0.80359,2.507661 -1.15625,3.75 -0.31259,1.118105 -0.58326,2.221637 -0.84375,3.34375 L -767.90625,-74 c -0.02,0.176332 -0.0112,0.354918 -0.0312,0.53125 l 0.125,0.09375 c -0.17361,1.965652 -0.25103,4.018237 -0.21875,5.65625 0,1.891561 0.0929,3.819174 0.28125,5.71875 l -16.4375,10.96875 c 0.004,0.02405 0.0272,0.04246 0.0312,0.0625 0.28453,1.250355 0.58885,2.507661 0.9375,3.75 0.35267,1.246346 0.73545,2.480419 1.15625,3.71875 0.41678,1.234324 0.85884,2.465198 1.34375,3.6875 0.35266,0.889675 0.76351,1.77459 1.15625,2.65625 l 19.65625,-0.53125 c 0.13225,0.224422 0.30525,0.435835 0.4375,0.65625 l 0.125,0 c 0.96181,1.582981 2.0037,3.091731 3.09375,4.5625 1.09006,1.466762 2.23123,2.872215 3.4375,4.21875 L -759.5,-9.875 c 0.58109,0.5049499 1.15688,1.0110795 1.75,1.5 0.98986,0.8135317 2.00532,1.6135664 3.03125,2.375 1.02192,0.7614335 2.06701,1.4781645 3.125,2.1875 1.05799,0.7093355 2.1287,1.4052625 3.21875,2.0625 0.31259,0.1883546 0.62091,0.3821605 0.9375,0.5625 l 15.625,-11.78125 c 0.22843,0.100188 0.45907,0.185068 0.6875,0.28125 l 0.0312,-0.03125 c 1.72325,0.733381 3.49789,1.360413 5.28125,1.9375 1.78736,0.577086 3.57481,1.0832151 5.40625,1.5 l 0.0312,0.0625 c 0.008,0 0.0232,0.02723 0.0312,0.03125 l 5.625,18.65625 c 0.78948,0.080151 1.5775,0.162644 2.375,0.21875 1.2744,0.09618 2.56134,0.15544 3.84375,0.1875 0.85762,0.02404 1.70088,0.00401 2.5625,0 0.42881,-0.004 0.87969,0.01202 1.3125,0 1.28242,-0.03206 2.53409,-0.091315 3.8125,-0.1875 0.40476,-0.02805 0.81399,-0.088936 1.21875,-0.125 L -693.96875,-9 c 4.07167,-0.8415848 8.02857,-2.099702 11.84375,-3.71875 l 15.78125,11.875 c 0.52499,-0.3005659 1.07277,-0.589654 1.59375,-0.90625 1.08604,-0.6572375 2.16075,-1.3531645 3.21875,-2.0625 1.05799,-0.7093355 2.09907,-1.4260665 3.125,-2.1875 1.02593,-0.7614336 2.01014,-1.5614683 3,-2.375 0.39274,-0.3246111 0.76752,-0.6673738 1.15625,-1 l -6.59375,-18.125 c 0.012,-0.01603 0.0504,-0.01522 0.0625,-0.03125 l -0.0625,-0.15625 c 2.76921,-3.017682 5.2542,-6.337914 7.40625,-9.96875 l 19.84375,0.53125 c 0.39274,-0.889675 0.79958,-1.78981 1.15625,-2.6875 0.48491,-1.222302 0.92296,-2.453176 1.34375,-3.6875 0.41678,-1.238331 0.80759,-2.472403 1.15625,-3.71875 0.31659,-1.114097 0.61451,-2.225645 0.875,-3.34375 l -16.25,-10.84375 c 0.02,-0.180339 0.0153,-0.382161 0.0312,-0.5625 l -0.0937,-0.0625 c 0.19108,-1.966988 0.25278,-4.088266 0.1875,-5.6875 -0.004,-1.895569 -0.0617,-3.787924 -0.25,-5.6875 l 16.40625,-11 c -0.004,-0.02004 0.004,-0.04247 0,-0.0625 -0.28854,-1.254362 -0.61608,-2.503653 -0.96875,-3.75 -0.35266,-1.242339 -0.73947,-2.484426 -1.15625,-3.71875 -0.42079,-1.234324 -0.85884,-2.461191 -1.34375,-3.6875 -0.35267,-0.885667 -0.73627,-1.778597 -1.125,-2.65625 l -19.6875,0.5625 c -0.13225,-0.220415 -0.30125,-0.435835 -0.4375,-0.65625 l -0.125,0 c -0.96581,-1.586992 -1.97245,-3.12699 -3.0625,-4.59375 -1.09005,-1.46676 -2.23524,-2.87222 -3.4375,-4.21875 l 6.65625,-18.34375 c -0.5811,-0.50896 -1.15688,-1.01509 -1.75,-1.5 -0.98986,-0.81353 -1.97808,-1.61356 -3,-2.375 -1.02593,-0.76143 -2.07101,-1.50941 -3.125,-2.21875 -1.05799,-0.70933 -2.1287,-1.40526 -3.21875,-2.0625 -0.30858,-0.18435 -0.6209,-0.35091 -0.9375,-0.53125 l -15.65625,11.75 c -0.22843,-0.10019 -0.45907,-0.15381 -0.6875,-0.25 l -0.0312,0.0312 c -1.72725,-0.73338 -3.49388,-1.39167 -5.28125,-1.96875 -1.78336,-0.57308 -3.5748,-1.08722 -5.40625,-1.5 l -0.0312,-0.0625 c -0.008,-0.004 -0.0231,0 -0.0312,0 L -698.5,-144.875 c -0.78949,-0.0841 -1.55026,-0.18988 -2.34375,-0.25 -1.27841,-0.0922 -2.56133,-0.15143 -3.84375,-0.1875 -0.85761,-0.02 -1.73213,0 -2.59375,0 -0.43281,0.004 -0.85244,-0.008 -1.28125,0 z m 21.84375,35 c 0.2023,-0.0148 0.38937,-0.0145 0.59375,0 0.54502,0.0361 1.10803,0.18101 1.625,0.4375 2.06789,1.02994 2.89774,3.51144 1.84375,5.53125 -1.04997,2.0198 -3.58836,2.84244 -5.65625,1.8125 -2.0679,-1.02994 -2.89773,-3.51144 -1.84375,-5.53125 0.6908,-1.32549 2.02143,-2.14606 3.4375,-2.25 z m -19.34375,17.59375 c 0.13625,0.004 0.26999,0.02324 0.40625,0.03125 0.68929,0.02004 1.3732,0.08011 2.0625,0.15625 2.95356,0.336634 5.90946,1.163867 8.71875,2.5625 8.86068,4.412307 13.97514,13.152873 14.03125,22.25 l 0.0625,0 c -0.008,1.134135 -0.0857,2.288145 -0.25,3.40625 -0.1603,1.118105 -0.40616,2.226455 -0.71875,3.3125 -0.31259,1.082037 -0.69538,2.122303 -1.15625,3.15625 -0.45686,1.033947 -0.99663,2.065431 -1.59375,3.03125 -0.60113,0.969826 -1.26662,1.895582 -2,2.78125 -0.73338,0.889675 -1.54463,1.741764 -2.40625,2.53125 -0.86563,0.793494 -1.76014,1.537468 -2.75,2.21875 -0.98586,0.677275 -2.05017,1.290709 -3.15625,1.84375 -0.7935,0.39274 -1.59672,0.726677 -2.40625,1.03125 -0.80952,0.308581 -1.61195,0.592085 -2.4375,0.8125 -0.82155,0.224423 -1.66643,0.390986 -2.5,0.53125 -0.38873,0.06412 -0.76752,0.07691 -1.15625,0.125 -0.13626,0.01603 -0.274,0.04647 -0.40625,0.0625 -0.30858,0.03206 -0.62892,0.100959 -0.9375,0.125 -0.30056,0.02004 -0.60167,-0.01202 -0.90625,0 -0.34064,0.01603 -0.6866,0.03125 -1.03125,0.03125 -0.18835,0 -0.34691,0.004 -0.53125,0 -0.14027,-0.004 -0.29723,-0.02724 -0.4375,-0.03125 -0.68529,-0.02405 -1.37321,-0.0761 -2.0625,-0.15625 -2.95757,-0.332626 -5.91347,-1.132617 -8.71875,-2.53125 -8.86469,-4.412307 -13.94389,-13.184122 -14,-22.28125 l -0.0937,0 c 0.004,-1.138143 0.12094,-2.256894 0.28125,-3.375 0.16431,-1.118105 0.40616,-2.230463 0.71875,-3.3125 0.31259,-1.086045 0.69939,-2.153554 1.15625,-3.1875 0.45686,-1.033947 0.96537,-2.030174 1.5625,-3 0.59712,-0.969826 1.26662,-1.922825 2,-2.8125 0.73338,-0.885668 1.54062,-1.706506 2.40625,-2.5 0.86163,-0.789486 1.79539,-1.537467 2.78125,-2.21875 0.98986,-0.677275 2.04616,-1.294716 3.15625,-1.84375 0.78948,-0.396747 1.56548,-0.753919 2.375,-1.0625 0.80953,-0.304573 1.6472,-0.556827 2.46875,-0.78125 0.82555,-0.220415 1.63919,-0.390986 2.46875,-0.53125 0.38873,-0.06412 0.79476,-0.108156 1.1875,-0.15625 0.13225,-0.01603 0.27,-0.01522 0.40625,-0.03125 0.30858,-0.03206 0.59767,-0.104958 0.90625,-0.125 0.30057,-0.02004 0.60569,0.008 0.90625,0 0.34064,-0.01603 0.69061,-0.02725 1.03125,-0.03125 0.18836,0.004 0.37414,-0.03526 0.5625,-0.03125 z m -40.3125,1.375 c 0.20202,-0.01479 0.38987,-0.01403 0.59375,0 0.54502,0.03607 1.10803,0.181017 1.625,0.4375 2.0679,1.029939 2.89773,3.480198 1.84375,5.5 -1.05399,2.019803 -3.58836,2.842439 -5.65625,1.8125 -2.0679,-1.029939 -2.89773,-3.511448 -1.84375,-5.53125 0.6908,-1.325495 2.02335,-2.115196 3.4375,-2.21875 z m 78.71875,39.09375 c 0.80512,-0.09642 1.66204,0.05278 2.4375,0.4375 2.0679,1.029939 2.89774,3.507439 1.84375,5.53125 -0.78948,1.514852 -2.42742,2.330961 -4.0625,2.21875 -0.54502,-0.04008 -1.07678,-0.17701 -1.59375,-0.4375 -2.06789,-1.029939 -2.89373,-3.511447 -1.84375,-5.53125 0.65874,-1.262376 1.87689,-2.058057 3.21875,-2.21875 z m -59.65625,18.9375 c 0.80441,-0.09642 1.66204,0.05278 2.4375,0.4375 2.06789,1.029939 2.89773,3.507439 1.84375,5.53125 -0.78949,1.514852 -2.42742,2.330962 -4.0625,2.21875 -0.54503,-0.04008 -1.10803,-0.181017 -1.625,-0.4375 -2.0679,-1.029939 -2.89773,-3.511448 -1.84375,-5.53125 0.65874,-1.262377 1.90931,-2.058057 3.25,-2.21875 z"
       style="color:#000000;fill:url(#linearGradient3087);fill-opacity:1" />
    <path
       id="path2327"
       d="m -706.49532,-106.16768 c -20.59477,0 -37.40242,16.791616 -37.40242,37.38639 0,20.594775 16.80765,37.40242 37.40242,37.40242 20.59478,0 37.38639,-16.807645 37.38639,-37.40242 0,-20.594774 -16.79161,-37.38639 -37.38639,-37.38639 z m 0,8.536072 c 15.97408,0 28.85032,12.876243 28.85032,28.850318 0,15.974075 -12.87624,28.866348 -28.85032,28.866348 -15.97407,0 -28.86634,-12.892273 -28.86634,-28.866348 0,-15.974075 12.89227,-28.850318 28.86634,-28.850318 z"
       style="color:#000000;fill:#ffffff"
       inkscape:connector-curvature="0" />
    <path
       id="path3500"
       d="m -706.49532,-104.91332 c -19.91349,0 -36.13202,16.222546 -36.13202,36.13203 0,19.913492 16.21853,36.132028 36.13202,36.132028 19.90949,0 36.116,-16.218536 36.116,-36.132028 0,-19.909484 -16.20651,-36.13203 -36.116,-36.13203 z m 0,6.015328 c 16.65937,0 30.11671,13.457337 30.11671,30.116702 0,16.659366 -13.45734,30.12071 -30.11671,30.12071 -16.65936,0 -30.12071,-13.461344 -30.12071,-30.12071 0,-16.659365 13.46135,-30.116702 30.12071,-30.116702 z"
       style="color:#000000;fill:url(#linearGradient3089);fill-opacity:1"
       inkscape:connector-curvature="0" />
  </g>
  <metadata
     id="metadata16">
    <rdf:RDF>
      <cc:Work>
        <dc:format>image/svg+xml</dc:format>
        <dc:type
           rdf:resource="http://purl.org/dc/dcmitype/StillImage" />
        <cc:license
           rdf:resource="http://creativecommons.org/licenses/publicdomain/" />
        <dc:publisher>
          <cc:Agent
             rdf:about="http://openclipart.org/">
            <dc:title>Openclipart</dc:title>
          </cc:Agent>
        </dc:publisher>
        <dc:title>Gear</dc:title>
        <dc:date>2006-12-26T00:00:00</dc:date>
        <dc:description>clip art, clipart, gear, mechanics, metal, </dc:description>
        <dc:source>http://openclipart.org/detail/3509/-by--3509</dc:source>
        <dc:creator>
          <cc:Agent>
            <dc:title>barretr</dc:title>
          </cc:Agent>
        </dc:creator>
        <dc:subject>
          <rdf:Bag>
            <rdf:li>clip art</rdf:li>
            <rdf:li>clipart</rdf:li>
            <rdf:li>gear</rdf:li>
            <rdf:li>mechanics</rdf:li>
            <rdf:li>metal</rdf:li>
          </rdf:Bag>
        </dc:subject>
      </cc:Work>
      <cc:License
         rdf:about="http://creativecommons.org/licenses/publicdomain/">
        <cc:permits
           rdf:resource="http://creativecommons.org/ns#Reproduction" />
        <cc:permits
           rdf:resource="http://creativecommons.org/ns#Distribution" />
        <cc:permits
           rdf:resource="http://creativecommons.org/ns#DerivativeWorks" />
      </cc:License>
    </rdf:RDF>
  </metadata>
  <rect
     style="fill:none;stroke:none;stroke-width:1"
     id="rect3012"
     width="200"
     height="200"
     x="0.5"
     y="0.49999878"
     rx="10"
     ry="10" />
</svg>
