<?xml version="1.0" encoding="UTF-8" standalone="no"?>
<svg
   xmlns:dc="http://purl.org/dc/elements/1.1/"
   xmlns:cc="http://creativecommons.org/ns#"
   xmlns:rdf="http://www.w3.org/1999/02/22-rdf-syntax-ns#"
   xmlns:svg="http://www.w3.org/2000/svg"
   xmlns="http://www.w3.org/2000/svg"
   xmlns:xlink="http://www.w3.org/1999/xlink"
   xmlns:sodipodi="http://sodipodi.sourceforge.net/DTD/sodipodi-0.dtd"
   xmlns:inkscape="http://www.inkscape.org/namespaces/inkscape"
   id="svg2"
   viewBox="0 0 510.44 554.89"
   version="1.0"
   inkscape:version="0.48.4 r9939"
   width="100%"
   height="100%"
   sodipodi:docname="xml-editor.svg"
   inkscape:export-filename="/home/crep/git/xml-editor/icons/xml-editor/48x48/xml-editor.png"
   inkscape:export-xdpi="8.5409079"
   inkscape:export-ydpi="8.5409079">
  <sodipodi:namedview
     pagecolor="#ffffff"
     bordercolor="#666666"
     borderopacity="1"
     objecttolerance="10"
     gridtolerance="10"
     guidetolerance="10"
     inkscape:pageopacity="0"
     inkscape:pageshadow="2"
     inkscape:window-width="1625"
     inkscape:window-height="1026"
     id="namedview29"
     showgrid="false"
     inkscape:zoom="1.202957"
     inkscape:cx="440.79181"
     inkscape:cy="252.72894"
     inkscape:window-x="55"
     inkscape:window-y="24"
     inkscape:window-maximized="1"
     inkscape:current-layer="svg2" />
  <defs
     id="defs4">
    <linearGradient
       id="linearGradient2254">
      <stop
         id="stop2256"
         stop-color="#bedcdc"
         offset="0" />
      <stop
         id="stop2264"
         stop-color="#8e9e9e"
         stop-opacity=".7415"
         offset=".5" />
      <stop
         id="stop2258"
         stop-color="#404f5c"
         stop-opacity=".83922"
         offset="1"
         style="stop-color:#575589;stop-opacity:0.83921999;" />
    </linearGradient>
    <filter
       id="filter3340">
      <feGaussianBlur
         id="feGaussianBlur3342"
         stdDeviation="3.9590909" />
    </filter>
    <filter
       id="filter3390">
      <feGaussianBlur
         id="feGaussianBlur3392"
         stdDeviation="10.093933" />
    </filter>
    <radialGradient
       inkscape:collect="always"
       xlink:href="#linearGradient2254"
       id="radialGradient3009"
       gradientUnits="userSpaceOnUse"
       gradientTransform="matrix(0.086859,-0.58077,0.6221,0.093576,81.33,598.42)"
       cx="380"
       cy="389.51"
       r="148.86" />
    <radialGradient
       inkscape:collect="always"
       xlink:href="#linearGradient2254"
       id="radialGradient3017"
       gradientUnits="userSpaceOnUse"
       gradientTransform="matrix(-0.10557,-0.9309,0.99363,-0.11268,-134.696,638.06)"
       cx="380"
       cy="389.51"
       r="148.86" />
  </defs>
  <g
     id="g3005">
    <path
       id="path3344"
       d="m 417.44,175.31 c -2.41,18.12 -17.91,32.13 -36.69,32.13 -17.82,0 -32.72,-12.6 -36.25,-29.38 -13.06,2.81 -25.65,6.85 -37.69,11.97 6.6,16.77 0.14,36.31 -15.93,45.59 -14.93,8.62 -33.39,5.69 -44.94,-6.06 -8.1,7.53 -15.64,15.69 -22.47,24.41 14.38,11.17 18.67,31.54 9.31,47.75 -8.93,15.46 -27.34,22.07 -43.66,16.69 -3.91,12.02 -6.77,24.51 -8.46,37.37 18.74,1.83 33.4,17.63 33.4,36.84 0,18.11 -13.01,33.17 -30.18,36.38 1.27,5.76 2.75,11.43 4.5,17 3.35,-0.88 6.79,-1.3 10.18,-1.22 12.51,0.28 24.58,6.91 31.28,18.53 9.13,15.82 5.27,35.58 -8.28,46.91 7.56,9.95 15.98,19.21 25.16,27.66 6.98,-8.46 17.23,-13.2 27.78,-13.44 6.55,-0.15 13.2,1.45 19.28,4.97 16.88,9.74 23.17,30.78 14.88,48.06 11.47,4.75 23.45,8.52 35.84,11.19 3.53,-16.78 18.43,-29.38 36.25,-29.38 18.78,0 34.28,14.01 36.69,32.13 11.22,-1.53 22.16,-3.93 32.75,-7.16 -5.54,-16.38 1.05,-34.93 16.59,-43.91 5.53,-3.19 11.56,-4.78 17.53,-4.93 12.01,-0.31 23.79,5.25 31.1,15.5 10.67,-8.08 20.55,-17.17 29.5,-27.1 -12.83,-11.43 -16.34,-30.69 -7.41,-46.15 6.71,-11.62 18.77,-18.25 31.28,-18.54 4.99,-0.11 10.06,0.8 14.88,2.79 4.32,-10.71 7.78,-21.86 10.31,-33.35 -16.1,-4.02 -28.03,-18.59 -28.03,-35.94 0,-18.44 13.5,-33.74 31.15,-36.56 -2.44,-18.83 -7.39,-36.88 -14.5,-53.81 -17.27,8.28 -38.29,1.99 -48.03,-14.87 -9.1,-15.77 -5.26,-35.47 8.19,-46.82 -8.08,-8.7 -16.88,-16.73 -26.31,-23.97 -11.36,13.38 -30.99,17.18 -46.72,8.1 -14.78,-8.54 -21.46,-25.75 -17.31,-41.5 -11.28,-3.58 -22.96,-6.24 -34.97,-7.88 z m -28.56,133.75 c 1.28,0 2.54,0.03 3.81,0.1 5.06,0.25 10,1.02 14.75,2.25 1.18,0.3 2.37,0.63 3.53,1 2.32,0.72 4.59,1.56 6.81,2.5 1.11,0.47 2.2,0.97 3.28,1.5 0.54,0.26 1.09,0.53 1.63,0.81 0.07,0.04 0.14,0.09 0.22,0.12 0.72,0.38 1.44,0.76 2.15,1.16 0.79,0.44 1.55,0.88 2.32,1.34 2.04,1.25 4.03,2.58 5.93,4 0.72,0.54 1.43,1.1 2.13,1.66 0.42,0.34 0.86,0.68 1.28,1.03 0.57,0.48 1.1,0.98 1.66,1.47 1.03,0.92 2.05,1.86 3.03,2.84 0.63,0.63 1.23,1.29 1.84,1.94 l 0.03,0.03 c 0.28,0.3 0.57,0.6 0.84,0.91 0.71,0.79 1.39,1.59 2.07,2.4 0.19,0.23 0.37,0.46 0.56,0.69 0.56,0.7 1.12,1.41 1.66,2.13 0.66,0.89 1.31,1.79 1.93,2.72 0.88,1.29 1.74,2.62 2.54,3.96 0.45,0.77 0.88,1.56 1.31,2.35 1.14,2.1 2.18,4.25 3.12,6.47 0.41,0.97 0.82,1.94 1.19,2.94 0.04,0.1 0.06,0.21 0.09,0.31 0.33,0.89 0.65,1.81 0.94,2.72 0.04,0.12 0.09,0.25 0.13,0.37 0.11,0.36 0.2,0.73 0.31,1.1 0.27,0.89 0.54,1.78 0.78,2.68 0.07,0.25 0.13,0.5 0.19,0.75 0.16,0.64 0.29,1.29 0.44,1.94 0.17,0.8 0.34,1.6 0.5,2.41 0,0.04 0.02,0.08 0.03,0.12 0.01,0.07 0.01,0.15 0.03,0.22 0.17,0.93 0.33,1.87 0.47,2.81 0.01,0.07 0.02,0.13 0.03,0.19 0.03,0.21 0.03,0.42 0.06,0.62 0.11,0.88 0.23,1.75 0.31,2.63 0.11,1.1 0.2,2.2 0.25,3.31 0.07,1.26 0.1,2.54 0.1,3.82 0,2.56 -0.12,5.06 -0.38,7.56 v 0.03 c -0.13,1.24 -0.28,2.47 -0.47,3.69 v 0.03 c -0.18,1.22 -0.41,2.42 -0.65,3.62 -0.01,0.01 0,0.02 0,0.03 -0.13,0.6 -0.27,1.19 -0.41,1.78 -0.14,0.6 -0.29,1.2 -0.44,1.79 0,0.01 0.01,0.02 0,0.03 -0.3,1.17 -0.64,2.34 -1,3.5 0,0.01 0.01,0.02 0,0.03 -0.72,2.31 -1.56,4.6 -2.5,6.81 -0.94,2.22 -1.98,4.36 -3.12,6.47 -0.01,0.01 0,0.02 0,0.03 -1.14,2.1 -2.39,4.13 -3.72,6.1 -0.01,0 0,0.02 0,0.03 -0.66,0.98 -1.36,1.92 -2.06,2.87 -0.01,0.01 0,0.03 0,0.03 -0.71,0.95 -1.47,1.87 -2.22,2.78 -0.01,0.01 0,0.03 0,0.03 -3.03,3.67 -6.4,7.04 -10.07,10.07 -3.66,3.03 -7.63,5.71 -11.84,8 -2.1,1.14 -4.28,2.18 -6.5,3.12 -2.22,0.94 -4.49,1.78 -6.81,2.5 -1.16,0.36 -2.35,0.7 -3.53,1 -4.75,1.22 -9.69,2 -14.75,2.25 -1.27,0.07 -2.53,0.1 -3.81,0.1 -1.29,0 -2.55,-0.03 -3.82,-0.1 -5.06,-0.25 -10,-1.02 -14.75,-2.25 -1.18,-0.3 -2.37,-0.64 -3.53,-1 -2.32,-0.72 -4.59,-1.56 -6.81,-2.5 -2.22,-0.94 -4.4,-1.98 -6.5,-3.12 -1.05,-0.57 -2.07,-1.19 -3.09,-1.81 -1.03,-0.63 -2.05,-1.28 -3.04,-1.94 -0.98,-0.67 -1.95,-1.35 -2.9,-2.06 -1.91,-1.43 -3.74,-2.94 -5.5,-4.54 -0.88,-0.79 -1.73,-1.63 -2.56,-2.46 -0.85,-0.85 -1.67,-1.68 -2.47,-2.57 -0.01,0 0,-0.02 0,-0.03 -0.8,-0.88 -1.59,-1.77 -2.35,-2.69 -0.75,-0.91 -1.5,-1.86 -2.22,-2.81 -0.71,-0.95 -1.39,-1.92 -2.06,-2.9 -1.33,-1.98 -2.57,-4.02 -3.72,-6.13 -1.14,-2.11 -2.18,-4.25 -3.12,-6.47 -0.01,-0.01 0,-0.02 0,-0.03 -0.47,-1.1 -0.93,-2.22 -1.35,-3.34 0,-0.01 0.01,-0.03 0,-0.03 -0.41,-1.14 -0.79,-2.28 -1.15,-3.44 -0.36,-1.14 -0.67,-2.28 -0.97,-3.44 -0.02,-0.08 -0.04,-0.17 -0.06,-0.25 -0.27,-1.06 -0.53,-2.15 -0.75,-3.22 -0.06,-0.27 -0.11,-0.54 -0.16,-0.81 -0.15,-0.76 -0.31,-1.51 -0.44,-2.28 -0.06,-0.39 -0.13,-0.77 -0.18,-1.16 -0.01,-0.03 0,-0.06 0,-0.09 -0.15,-1.02 -0.27,-2.04 -0.38,-3.07 -0.02,-0.17 -0.05,-0.35 -0.06,-0.53 -0.1,-1.05 -0.16,-2.12 -0.22,-3.18 -0.01,-0.09 -0.03,-0.17 -0.03,-0.25 -0.07,-1.27 -0.1,-2.53 -0.1,-3.82 0,-1.28 0.03,-2.54 0.1,-3.81 0.06,-1.25 0.15,-2.51 0.28,-3.75 v -0.03 c 0.12,-1.24 0.28,-2.47 0.47,-3.69 v -0.03 c 0.18,-1.22 0.41,-2.43 0.65,-3.62 0.01,-0.01 0,-0.03 0,-0.03 0.25,-1.2 0.55,-2.39 0.85,-3.57 0,-0.01 -0.01,-0.02 0,-0.03 0.3,-1.18 0.64,-2.35 1,-3.5 0,-0.01 -0.01,-0.02 0,-0.03 0.36,-1.16 0.74,-2.3 1.15,-3.44 0.32,-0.85 0.66,-1.69 1,-2.53 0.04,-0.09 0.09,-0.19 0.13,-0.28 0.17,-0.41 0.32,-0.82 0.5,-1.22 0.27,-0.62 0.56,-1.23 0.84,-1.84 0.2,-0.42 0.39,-0.84 0.6,-1.25 0.45,-0.92 0.92,-1.83 1.4,-2.72 0.01,-0.01 0,-0.02 0,-0.03 0.57,-1.05 1.16,-2.08 1.78,-3.1 0.63,-1.02 1.27,-2.03 1.94,-3.03 0.66,-0.98 1.36,-1.93 2.06,-2.87 0.01,-0.01 0,-0.03 0,-0.03 0.71,-0.95 1.47,-1.87 2.22,-2.79 0.01,0 0,-0.02 0,-0.03 0.76,-0.91 1.55,-1.8 2.35,-2.68 2.39,-2.64 4.96,-5.11 7.71,-7.38 3.67,-3.03 7.64,-5.71 11.85,-8 2.1,-1.14 4.28,-2.18 6.5,-3.12 2.22,-0.94 4.49,-1.78 6.81,-2.5 1.16,-0.37 2.35,-0.7 3.53,-1 4.75,-1.23 9.69,-2 14.75,-2.25 1.27,-0.07 2.53,-0.1 3.82,-0.1 z"
       transform="matrix(0.95883,0,0,1.0046,-151.795,-151.836)"
       inkscape:connector-curvature="0"
       style="opacity:0.88485;filter:url(#filter3390)" />
    <path
       id="path2274"
       d="m 249.63,25.24 c -2.4,18.12 -17.91,32.12 -36.68,32.12 -17.83,0 -32.73,-12.59 -36.25,-29.37 -13.06,2.81 -25.66,6.85 -37.69,11.97 6.6,16.77 0.14,36.31 -15.94,45.59 -14.92,8.62 -33.39,5.68 -44.94,-6.06 -8.1,7.53 -15.63,15.69 -22.46,24.4 14.38,11.17 18.67,31.54 9.31,47.75 -8.93,15.47 -27.34,22.08 -43.66,16.69 -3.91,12.02 -6.78,24.52 -8.47,37.38 18.75,1.82 33.41,17.62 33.41,36.84 0,18.11 -13.01,33.16 -30.19,36.38 1.28,5.75 2.76,11.42 4.5,17 3.36,-0.89 6.8,-1.3 10.19,-1.22 12.51,0.28 24.57,6.91 31.28,18.53 9.13,15.81 5.26,35.58 -8.28,46.9 7.56,9.95 15.98,19.21 25.16,27.66 6.97,-8.45 17.22,-13.2 27.78,-13.44 6.55,-0.14 13.19,1.46 19.28,4.97 16.87,9.74 23.17,30.78 14.87,48.06 11.48,4.76 23.46,8.52 35.85,11.19 3.52,-16.78 18.42,-29.37 36.25,-29.37 18.77,0 34.28,14 36.68,32.12 11.23,-1.53 22.17,-3.92 32.75,-7.15 -5.53,-16.38 1.06,-34.94 16.6,-43.91 5.53,-3.19 11.56,-4.78 17.53,-4.94 12,-0.31 23.78,5.26 31.09,15.5 10.68,-8.08 20.56,-17.16 29.5,-27.09 -12.83,-11.44 -16.33,-30.69 -7.4,-46.16 6.71,-11.62 18.77,-18.25 31.28,-18.53 4.99,-0.11 10.06,0.79 14.87,2.78 4.33,-10.7 7.79,-21.85 10.32,-33.34 -16.1,-4.03 -28.04,-18.6 -28.04,-35.94 0,-18.44 13.51,-33.74 31.16,-36.56 -2.45,-18.84 -7.4,-36.88 -14.5,-53.81 -17.28,8.27 -38.29,1.99 -48.03,-14.88 -9.1,-15.77 -5.27,-35.47 8.19,-46.81 -8.08,-8.7 -16.88,-16.74 -26.32,-23.97 -11.35,13.37 -30.98,17.17 -46.71,8.09 -14.79,-8.53 -21.47,-25.74 -17.32,-41.5 -11.27,-3.58 -22.96,-6.24 -34.97,-7.87 z m -28.56,133.75 c 1.28,0 2.55,0.03 3.81,0.09 5.07,0.26 10.01,1.03 14.75,2.25 1.19,0.31 2.37,0.64 3.54,1 2.32,0.73 4.59,1.56 6.81,2.5 1.11,0.47 2.2,0.98 3.28,1.5 0.54,0.26 1.09,0.54 1.62,0.81 0.08,0.04 0.15,0.09 0.22,0.13 0.73,0.37 1.45,0.76 2.16,1.16 0.78,0.44 1.55,0.87 2.31,1.34 2.04,1.24 4.03,2.57 5.94,4 0.71,0.53 1.43,1.1 2.12,1.66 0.43,0.34 0.87,0.67 1.29,1.03 0.56,0.47 1.1,0.97 1.65,1.47 1.04,0.92 2.05,1.86 3.03,2.84 0.63,0.63 1.24,1.28 1.85,1.94 l 0.03,0.03 c 0.28,0.3 0.57,0.6 0.84,0.9 0.71,0.79 1.39,1.59 2.06,2.41 0.19,0.23 0.38,0.46 0.57,0.69 0.56,0.69 1.12,1.41 1.65,2.12 0.67,0.9 1.31,1.8 1.94,2.72 0.88,1.3 1.73,2.62 2.53,3.97 0.46,0.77 0.89,1.56 1.31,2.34 1.15,2.11 2.19,4.25 3.13,6.47 0.41,0.98 0.82,1.95 1.19,2.94 0.04,0.1 0.05,0.21 0.09,0.31 0.33,0.9 0.64,1.81 0.94,2.72 0.04,0.13 0.08,0.25 0.12,0.38 0.12,0.36 0.21,0.73 0.32,1.09 0.27,0.89 0.54,1.78 0.78,2.69 l 0.18,0.75 c 0.16,0.64 0.3,1.29 0.44,1.94 0.18,0.79 0.35,1.59 0.5,2.4 0.01,0.04 0.03,0.08 0.03,0.13 0.02,0.07 0.02,0.14 0.03,0.22 0.17,0.93 0.34,1.86 0.47,2.81 0.01,0.06 0.03,0.12 0.03,0.19 0.03,0.2 0.04,0.41 0.07,0.62 0.11,0.87 0.23,1.74 0.31,2.63 0.1,1.09 0.19,2.2 0.25,3.31 0.06,1.25 0.09,2.54 0.09,3.81 0,2.56 -0.12,5.07 -0.37,7.56 v 0.03 c -0.13,1.24 -0.28,2.47 -0.47,3.69 v 0.03 c -0.19,1.22 -0.41,2.43 -0.66,3.63 0,0.01 0.01,0.02 0,0.03 -0.12,0.6 -0.26,1.19 -0.4,1.78 -0.14,0.6 -0.29,1.19 -0.44,1.78 v 0.03 c -0.3,1.18 -0.64,2.35 -1,3.5 v 0.03 c -0.72,2.32 -1.56,4.6 -2.5,6.82 -0.94,2.22 -1.98,4.36 -3.13,6.47 -1.15,2.11 0.01,0.02 0,0.03 -1.14,2.09 -2.38,4.12 -3.71,6.09 -0.01,0.01 0,0.02 0,0.03 -0.67,0.98 -1.36,1.93 -2.07,2.88 0,0 0.01,0.02 0,0.03 -0.71,0.94 -1.46,1.87 -2.22,2.78 0,0.01 0.01,0.02 0,0.03 -3.02,3.66 -6.39,7.04 -10.06,10.06 -3.67,3.03 -7.63,5.72 -11.84,8 -2.11,1.15 -4.28,2.19 -6.5,3.13 -2.22,0.94 -4.49,1.77 -6.81,2.5 -1.17,0.36 -2.35,0.69 -3.54,1 -4.74,1.22 -9.68,1.99 -14.75,2.25 -1.26,0.06 -2.53,0.09 -3.81,0.09 -1.28,0 -2.54,-0.03 -3.81,-0.09 -5.06,-0.26 -10,-1.03 -14.75,-2.25 -1.19,-0.31 -2.37,-0.64 -3.53,-1 -2.33,-0.73 -4.59,-1.56 -6.81,-2.5 -2.23,-0.94 -4.4,-1.98 -6.5,-3.13 -1.06,-0.57 -2.08,-1.19 -3.1,-1.81 -1.02,-0.62 -2.04,-1.27 -3.03,-1.94 -0.99,-0.66 -1.95,-1.35 -2.91,-2.06 -1.9,-1.43 -3.74,-2.93 -5.5,-4.53 -0.87,-0.8 -1.72,-1.63 -2.56,-2.47 -0.84,-0.84 -1.66,-1.68 -2.47,-2.56 0,-0.01 0.01,-0.03 0,-0.03 -0.8,-0.88 -1.58,-1.77 -2.34,-2.69 -0.76,-0.92 -1.51,-1.86 -2.22,-2.81 -0.71,-0.96 -1.39,-1.92 -2.06,-2.91 -1.34,-1.98 -2.58,-4.02 -3.72,-6.12 -1.14,-2.11 -2.19,-4.25 -3.13,-6.47 0,-0.01 0.01,-0.03 0,-0.03 -0.46,-1.11 -0.93,-2.22 -1.34,-3.35 v -0.03 c -0.42,-1.14 -0.79,-2.27 -1.16,-3.44 -0.35,-1.13 -0.66,-2.27 -0.96,-3.43 -0.03,-0.09 -0.05,-0.17 -0.07,-0.25 -0.27,-1.06 -0.52,-2.15 -0.75,-3.22 -0.05,-0.27 -0.1,-0.54 -0.15,-0.82 -0.15,-0.76 -0.31,-1.51 -0.44,-2.28 -0.06,-0.38 -0.13,-0.77 -0.19,-1.15 0,-0.03 0.01,-0.07 0,-0.1 -0.15,-1.01 -0.27,-2.03 -0.37,-3.06 -0.02,-0.18 -0.05,-0.35 -0.07,-0.53 -0.1,-1.05 -0.16,-2.12 -0.21,-3.19 -0.01,-0.08 -0.03,-0.16 -0.04,-0.25 -0.06,-1.26 -0.09,-2.53 -0.09,-3.81 0,-1.28 0.03,-2.55 0.09,-3.81 0.07,-1.26 0.16,-2.51 0.29,-3.75 0,-0.01 -0.01,-0.02 0,-0.03 0.12,-1.24 0.28,-2.47 0.46,-3.69 0.01,-0.01 0,-0.02 0,-0.03 0.19,-1.22 0.42,-2.43 0.66,-3.63 v -0.03 c 0.25,-1.2 0.54,-2.38 0.84,-3.56 0.01,-0.01 0,-0.02 0,-0.03 0.31,-1.18 0.65,-2.35 1,-3.5 0.01,-0.01 0,-0.02 0,-0.03 0.37,-1.17 0.74,-2.3 1.16,-3.44 0.31,-0.85 0.66,-1.7 1,-2.53 0.04,-0.1 0.09,-0.19 0.13,-0.28 0.16,-0.41 0.32,-0.82 0.5,-1.22 0.27,-0.62 0.55,-1.23 0.84,-1.85 0.2,-0.42 0.39,-0.83 0.59,-1.25 0.45,-0.91 0.92,-1.82 1.41,-2.72 v -0.03 c 0.57,-1.05 1.16,-2.07 1.78,-3.09 0.63,-1.03 1.27,-2.04 1.94,-3.03 0.66,-0.98 1.35,-1.93 2.06,-2.88 0.01,0 0,-0.02 0,-0.03 0.71,-0.94 1.47,-1.87 2.22,-2.78 0,-0.01 -0.01,-0.02 0,-0.03 0.76,-0.92 1.54,-1.81 2.34,-2.69 2.4,-2.64 4.97,-5.1 7.72,-7.37 3.67,-3.03 7.64,-5.72 11.85,-8 2.1,-1.15 4.27,-2.19 6.5,-3.13 2.22,-0.94 4.48,-1.77 6.81,-2.5 1.16,-0.36 2.34,-0.69 3.53,-1 4.75,-1.22 9.69,-1.99 14.75,-2.25 1.27,-0.06 2.53,-0.09 3.81,-0.09 z"
       inkscape:connector-curvature="0"
       style="fill:#c0c0c0" />
    <path
       id="path2249"
       d="m 221.06,62.14 c -94.47,0 -171.13,76.69 -171.13,171.16 0,94.47 76.66,171.13 171.13,171.13 94.47,0 171.15,-76.66 171.15,-171.13 0,-94.47 -76.68,-171.16 -171.15,-171.16 z m 0.03,96.85 c 1.28,0 2.54,0.03 3.81,0.09 5.06,0.26 10,1.03 14.75,2.25 1.19,0.31 2.37,0.64 3.53,1 2.33,0.73 4.59,1.56 6.81,2.5 3.34,1.41 6.53,3.08 9.6,4.94 2.04,1.24 4.03,2.57 5.94,4 2.86,2.14 5.57,4.48 8.09,7 5.04,5.04 9.35,10.81 12.78,17.12 1.14,2.11 2.19,4.25 3.13,6.47 3.29,7.79 5.3,16.26 5.75,25.13 0.06,1.25 0.09,2.54 0.09,3.81 0,2.56 -0.12,5.07 -0.38,7.56 0,0.01 0.01,0.02 0,0.03 -0.12,1.24 -0.28,2.47 -0.46,3.69 -0.01,0.01 0,0.02 0,0.03 -0.19,1.22 -0.42,2.43 -0.66,3.63 v 0.03 c -0.25,1.2 -0.54,2.39 -0.84,3.56 -0.01,0.01 0,0.02 0,0.03 -0.31,1.18 -0.65,2.35 -1,3.5 -0.01,0.01 0,0.02 0,0.03 -1.45,4.65 -3.35,9.08 -5.63,13.29 v 0.03 c -1.14,2.09 -2.39,4.12 -3.72,6.09 0,0.01 0.01,0.02 0,0.03 -0.66,0.98 -1.35,1.93 -2.06,2.88 -0.01,0 0,0.02 0,0.03 -0.71,0.94 -1.47,1.87 -2.22,2.78 0,0.01 0.01,0.02 0,0.03 -1.51,1.83 -3.11,3.58 -4.78,5.25 -0.85,0.85 -1.71,1.66 -2.59,2.47 -0.88,0.8 -1.77,1.59 -2.69,2.34 -3.67,3.03 -7.64,5.72 -11.85,8 -2.1,1.15 -4.27,2.19 -6.5,3.13 -2.22,0.94 -4.48,1.77 -6.81,2.5 -1.16,0.36 -2.34,0.69 -3.53,1 -4.75,1.22 -9.69,1.99 -14.75,2.25 -1.27,0.06 -2.53,0.09 -3.81,0.09 -1.28,0 -2.55,-0.03 -3.81,-0.09 -5.07,-0.26 -10.01,-1.03 -14.75,-2.25 -1.19,-0.31 -2.37,-0.64 -3.54,-1 -2.32,-0.73 -4.59,-1.56 -6.81,-2.5 -3.33,-1.41 -6.53,-3.08 -9.59,-4.94 -2.04,-1.24 -4.03,-2.57 -5.94,-4 -3.82,-2.86 -7.33,-6.07 -10.53,-9.59 -0.8,-0.88 -1.59,-1.77 -2.34,-2.69 -3.03,-3.67 -5.72,-7.63 -8,-11.84 -1.15,-2.11 -2.19,-4.25 -3.13,-6.47 v -0.03 c -0.47,-1.11 -0.93,-2.22 -1.34,-3.35 -0.01,-0.01 0,-0.02 0,-0.03 -0.42,-1.14 -0.8,-2.27 -1.16,-3.44 -1.81,-5.82 -2.93,-11.94 -3.25,-18.28 -0.06,-1.26 -0.09,-2.53 -0.09,-3.81 0,-2.57 0.12,-5.09 0.37,-7.59 0.13,-1.24 0.28,-2.47 0.47,-3.69 v -0.03 c 0.19,-1.22 0.41,-2.43 0.66,-3.63 0,-0.01 -0.01,-0.02 0,-0.03 0.24,-1.2 0.54,-2.38 0.84,-3.56 v -0.03 c 0.3,-1.18 0.64,-2.35 1,-3.5 v -0.03 c 0.36,-1.17 0.74,-2.3 1.16,-3.44 1.25,-3.42 2.74,-6.71 4.47,-9.88 0.57,-1.05 1.16,-2.07 1.78,-3.09 0.62,-1.03 1.26,-2.04 1.93,-3.03 0.67,-0.98 1.36,-1.93 2.07,-2.88 0,0 -0.01,-0.02 0,-0.03 0.7,-0.94 1.46,-1.87 2.22,-2.78 0,-0.01 -0.01,-0.02 0,-0.03 0.75,-0.92 1.54,-1.81 2.34,-2.69 0.8,-0.88 1.6,-1.72 2.44,-2.56 0.84,-0.85 1.71,-1.66 2.59,-2.47 0.88,-0.8 1.77,-1.59 2.69,-2.34 3.67,-3.03 7.63,-5.72 11.84,-8 2.11,-1.15 4.28,-2.19 6.5,-3.13 2.22,-0.94 4.49,-1.77 6.81,-2.5 1.17,-0.36 2.35,-0.69 3.54,-1 4.74,-1.22 9.68,-1.99 14.75,-2.25 1.26,-0.06 2.53,-0.09 3.81,-0.09 z"
       inkscape:connector-curvature="0"
       style="opacity:0.79393999;fill:#a9a9a9" />
    <path
       id="path2252"
       d="m 221.06,84.43 c -82.17,0 -148.85,66.7 -148.85,148.87 0,82.17 66.68,148.84 148.85,148.84 82.17,0 148.87,-66.67 148.87,-148.84 0,-82.17 -66.7,-148.87 -148.87,-148.87 z m 0.03,74.56 c 41,0 74.28,33.31 74.28,74.31 0,41.01 -33.28,74.28 -74.28,74.28 -41.01,0 -74.28,-33.3 -74.28,-74.31 0,-41.01 33.27,-74.28 74.28,-74.28 z"
       style="opacity:0.79393999;fill:url(#radialGradient3017)"
       inkscape:connector-curvature="0" />
    <path
       id="path3318"
       d="m 388.88,274.48 c -60.1,0 -108.88,48.77 -108.88,108.86 0,60.09 48.78,108.89 108.88,108.89 60.09,0 108.87,-48.76 108.87,-108.85 v -0.04 c 0,-60.09 -48.78,-108.86 -108.87,-108.86 z m 0,24.66 c 46.57,0 84.37,37.74 84.37,84.24 0,46.5 -37.8,84.2 -84.37,84.2 -46.58,0 -84.38,-37.74 -84.38,-84.24 0,-46.5 37.8,-84.2 84.38,-84.2 z"
       transform="matrix(0.83697,0,0,0.8358,-104.404,-87.125)"
       inkscape:connector-curvature="0"
       style="opacity:0.58788003;fill:#696969;filter:url(#filter3340)" />
    <path
       id="path3313"
       d="m 221.07,144.27 c -49.06,0 -88.87,39.87 -88.87,89 0,49.13 39.81,89.03 88.87,89.03 49.06,0 88.88,-39.87 88.88,-89 v -0.03 c 0,-49.13 -39.82,-89 -88.88,-89 z m 0,20.16 c 38.02,0 68.88,30.85 68.88,68.87 0,38.02 -30.86,68.84 -68.88,68.84 -38.02,0 -68.87,-30.85 -68.87,-68.87 0,-38.02 30.85,-68.84 68.87,-68.84 z"
       inkscape:connector-curvature="0"
       style="fill:#c0c0c0" />
    <path
       id="path3394"
       d="m 417.44,175.31 c -2.41,18.12 -17.91,32.13 -36.69,32.13 -17.82,0 -32.72,-12.6 -36.25,-29.38 -13.06,2.81 -25.65,6.85 -37.69,11.97 6.6,16.77 0.14,36.31 -15.93,45.59 -14.93,8.62 -33.39,5.69 -44.94,-6.06 -8.1,7.53 -15.64,15.69 -22.47,24.41 14.38,11.17 18.67,31.54 9.31,47.75 -8.93,15.46 -27.34,22.07 -43.66,16.69 -3.91,12.02 -6.77,24.51 -8.46,37.37 18.74,1.83 33.4,17.63 33.4,36.84 0,18.11 -13.01,33.17 -30.18,36.38 1.27,5.76 2.75,11.43 4.5,17 3.35,-0.88 6.79,-1.3 10.18,-1.22 12.51,0.28 24.58,6.91 31.28,18.53 9.13,15.82 5.27,35.58 -8.28,46.91 7.56,9.95 15.98,19.21 25.16,27.66 6.98,-8.46 17.23,-13.2 27.78,-13.44 6.55,-0.15 13.2,1.45 19.28,4.97 16.88,9.74 23.17,30.78 14.88,48.06 11.47,4.75 23.45,8.52 35.84,11.19 3.53,-16.78 18.43,-29.38 36.25,-29.38 18.78,0 34.28,14.01 36.69,32.13 11.22,-1.53 22.16,-3.93 32.75,-7.16 -5.54,-16.38 1.05,-34.93 16.59,-43.91 5.53,-3.19 11.56,-4.78 17.53,-4.93 12.01,-0.31 23.79,5.25 31.1,15.5 10.67,-8.08 20.55,-17.17 29.5,-27.1 -12.83,-11.43 -16.34,-30.69 -7.41,-46.15 6.71,-11.62 18.77,-18.25 31.28,-18.54 4.99,-0.11 10.06,0.8 14.88,2.79 4.32,-10.71 7.78,-21.86 10.31,-33.35 -16.1,-4.02 -28.03,-18.59 -28.03,-35.94 0,-18.44 13.5,-33.74 31.15,-36.56 -2.44,-18.83 -7.39,-36.88 -14.5,-53.81 -17.27,8.28 -38.29,1.99 -48.03,-14.87 -9.1,-15.77 -5.26,-35.47 8.19,-46.82 -8.08,-8.7 -16.88,-16.73 -26.31,-23.97 -11.36,13.38 -30.99,17.18 -46.72,8.1 -14.78,-8.54 -21.46,-25.75 -17.31,-41.5 -11.28,-3.58 -22.96,-6.24 -34.97,-7.88 z m -28.56,133.75 c 1.28,0 2.54,0.03 3.81,0.1 5.06,0.25 10,1.02 14.75,2.25 1.18,0.3 2.37,0.63 3.53,1 2.32,0.72 4.59,1.56 6.81,2.5 1.11,0.47 2.2,0.97 3.28,1.5 0.54,0.26 1.09,0.53 1.63,0.81 0.07,0.04 0.14,0.09 0.22,0.12 0.72,0.38 1.44,0.76 2.15,1.16 0.79,0.44 1.55,0.88 2.32,1.34 2.04,1.25 4.03,2.58 5.93,4 0.72,0.54 1.43,1.1 2.13,1.66 0.42,0.34 0.86,0.68 1.28,1.03 0.57,0.48 1.1,0.98 1.66,1.47 1.03,0.92 2.05,1.86 3.03,2.84 0.63,0.63 1.23,1.29 1.84,1.94 l 0.03,0.03 c 0.28,0.3 0.57,0.6 0.84,0.91 0.71,0.79 1.39,1.59 2.07,2.4 0.19,0.23 0.37,0.46 0.56,0.69 0.56,0.7 1.12,1.41 1.66,2.13 0.66,0.89 1.31,1.79 1.93,2.72 0.88,1.29 1.74,2.62 2.54,3.96 0.45,0.77 0.88,1.56 1.31,2.35 1.14,2.1 2.18,4.25 3.12,6.47 0.41,0.97 0.82,1.94 1.19,2.94 0.04,0.1 0.06,0.21 0.09,0.31 0.33,0.89 0.65,1.81 0.94,2.72 0.04,0.12 0.09,0.25 0.13,0.37 0.11,0.36 0.2,0.73 0.31,1.1 0.27,0.89 0.54,1.78 0.78,2.68 0.07,0.25 0.13,0.5 0.19,0.75 0.16,0.64 0.29,1.29 0.44,1.94 0.17,0.8 0.34,1.6 0.5,2.41 0,0.04 0.02,0.08 0.03,0.12 0.01,0.07 0.01,0.15 0.03,0.22 0.17,0.93 0.33,1.87 0.47,2.81 0.01,0.07 0.02,0.13 0.03,0.19 0.03,0.21 0.03,0.42 0.06,0.62 0.11,0.88 0.23,1.75 0.31,2.63 0.11,1.1 0.2,2.2 0.25,3.31 0.07,1.26 0.1,2.54 0.1,3.82 0,2.56 -0.12,5.06 -0.38,7.56 v 0.03 c -0.13,1.24 -0.28,2.47 -0.47,3.69 v 0.03 c -0.18,1.22 -0.41,2.42 -0.65,3.62 -0.01,0.01 0,0.02 0,0.03 -0.13,0.6 -0.27,1.19 -0.41,1.78 -0.14,0.6 -0.29,1.2 -0.44,1.79 0,0.01 0.01,0.02 0,0.03 -0.3,1.17 -0.64,2.34 -1,3.5 0,0.01 0.01,0.02 0,0.03 -0.72,2.31 -1.56,4.6 -2.5,6.81 -0.94,2.22 -1.98,4.36 -3.12,6.47 -0.01,0.01 0,0.02 0,0.03 -1.14,2.1 -2.39,4.13 -3.72,6.1 -0.01,0 0,0.02 0,0.03 -0.66,0.98 -1.36,1.92 -2.06,2.87 -0.01,0.01 0,0.03 0,0.03 -0.71,0.95 -1.47,1.87 -2.22,2.78 -0.01,0.01 0,0.03 0,0.03 -3.03,3.67 -6.4,7.04 -10.07,10.07 -3.66,3.03 -7.63,5.71 -11.84,8 -2.1,1.14 -4.28,2.18 -6.5,3.12 -2.22,0.94 -4.49,1.78 -6.81,2.5 -1.16,0.36 -2.35,0.7 -3.53,1 -4.75,1.22 -9.69,2 -14.75,2.25 -1.27,0.07 -2.53,0.1 -3.81,0.1 -1.29,0 -2.55,-0.03 -3.82,-0.1 -5.06,-0.25 -10,-1.02 -14.75,-2.25 -1.18,-0.3 -2.37,-0.64 -3.53,-1 -2.32,-0.72 -4.59,-1.56 -6.81,-2.5 -2.22,-0.94 -4.4,-1.98 -6.5,-3.12 -1.05,-0.57 -2.07,-1.19 -3.09,-1.81 -1.03,-0.63 -2.05,-1.28 -3.04,-1.94 -0.98,-0.67 -1.95,-1.35 -2.9,-2.06 -1.91,-1.43 -3.74,-2.94 -5.5,-4.54 -0.88,-0.79 -1.73,-1.63 -2.56,-2.46 -0.85,-0.85 -1.67,-1.68 -2.47,-2.57 -0.01,0 0,-0.02 0,-0.03 -0.8,-0.88 -1.59,-1.77 -2.35,-2.69 -0.75,-0.91 -1.5,-1.86 -2.22,-2.81 -0.71,-0.95 -1.39,-1.92 -2.06,-2.9 -1.33,-1.98 -2.57,-4.02 -3.72,-6.13 -1.14,-2.11 -2.18,-4.25 -3.12,-6.47 -0.01,-0.01 0,-0.02 0,-0.03 -0.47,-1.1 -0.93,-2.22 -1.35,-3.34 0,-0.01 0.01,-0.03 0,-0.03 -0.41,-1.14 -0.79,-2.28 -1.15,-3.44 -0.36,-1.14 -0.67,-2.28 -0.97,-3.44 -0.02,-0.08 -0.04,-0.17 -0.06,-0.25 -0.27,-1.06 -0.53,-2.15 -0.75,-3.22 -0.06,-0.27 -0.11,-0.54 -0.16,-0.81 -0.15,-0.76 -0.31,-1.51 -0.44,-2.28 -0.06,-0.39 -0.13,-0.77 -0.18,-1.16 -0.01,-0.03 0,-0.06 0,-0.09 -0.15,-1.02 -0.27,-2.04 -0.38,-3.07 -0.02,-0.17 -0.05,-0.35 -0.06,-0.53 -0.1,-1.05 -0.16,-2.12 -0.22,-3.18 -0.01,-0.09 -0.03,-0.17 -0.03,-0.25 -0.07,-1.27 -0.1,-2.53 -0.1,-3.82 0,-1.28 0.03,-2.54 0.1,-3.81 0.06,-1.25 0.15,-2.51 0.28,-3.75 v -0.03 c 0.12,-1.24 0.28,-2.47 0.47,-3.69 v -0.03 c 0.18,-1.22 0.41,-2.43 0.65,-3.62 0.01,-0.01 0,-0.03 0,-0.03 0.25,-1.2 0.55,-2.39 0.85,-3.57 0,-0.01 -0.01,-0.02 0,-0.03 0.3,-1.18 0.64,-2.35 1,-3.5 0,-0.01 -0.01,-0.02 0,-0.03 0.36,-1.16 0.74,-2.3 1.15,-3.44 0.32,-0.85 0.66,-1.69 1,-2.53 0.04,-0.09 0.09,-0.19 0.13,-0.28 0.17,-0.41 0.32,-0.82 0.5,-1.22 0.27,-0.62 0.56,-1.23 0.84,-1.84 0.2,-0.42 0.39,-0.84 0.6,-1.25 0.45,-0.92 0.92,-1.83 1.4,-2.72 0.01,-0.01 0,-0.02 0,-0.03 0.57,-1.05 1.16,-2.08 1.78,-3.1 0.63,-1.02 1.27,-2.03 1.94,-3.03 0.66,-0.98 1.36,-1.93 2.06,-2.87 0.01,-0.01 0,-0.03 0,-0.03 0.71,-0.95 1.47,-1.87 2.22,-2.79 0.01,0 0,-0.02 0,-0.03 0.76,-0.91 1.55,-1.8 2.35,-2.68 2.39,-2.64 4.96,-5.11 7.71,-7.38 3.67,-3.03 7.64,-5.71 11.85,-8 2.1,-1.14 4.28,-2.18 6.5,-3.12 2.22,-0.94 4.49,-1.78 6.81,-2.5 1.16,-0.37 2.35,-0.7 3.53,-1 4.75,-1.23 9.69,-2 14.75,-2.25 1.27,-0.07 2.53,-0.1 3.82,-0.1 z"
       transform="matrix(0.58268,0.15613,-0.16297,0.6082,199.08,117.42)"
       inkscape:connector-curvature="0"
       style="opacity:0.88485;filter:url(#filter3390)" />
    <path
       id="path3396"
       d="m 414.3,289.99 c -4.4,10.58 -16.09,16.53 -27.51,13.47 -10.83,-2.9 -17.84,-12.95 -17.26,-23.68 -8.39,-0.43 -16.7,-0.03 -24.84,1.1 1.28,11.23 -5.81,22.01 -17.08,25.01 -10.47,2.79 -21.22,-1.99 -26.33,-10.99 -6.14,3.25 -12.05,6.96 -17.61,11.12 6.93,9.11 6.23,22.14 -2.09,30.43 -7.93,7.9 -20.19,8.91 -29.24,2.99 -4.32,6.64 -8.09,13.74 -11.21,21.25 11.1,4.16 17.45,16.11 14.33,27.75 -2.94,10.96 -13.29,17.95 -24.25,17.1 -0.15,3.7 -0.17,7.37 -0.02,11.03 2.18,0.01 4.34,0.32 6.39,0.92 7.55,2.21 13.81,8.18 16,16.31 2.98,11.06 -2.57,22.4 -12.64,27.05 2.98,7.25 6.59,14.23 10.8,20.84 5.61,-3.98 12.61,-5.19 19.06,-3.61 4.01,0.98 7.79,3.03 10.91,6.15 8.68,8.64 9.09,22.4 1.25,31.52 6.2,4.74 12.87,8.97 19.96,12.61 4.87,-9.59 15.97,-14.79 26.8,-11.89 11.41,3.06 18.56,14.06 17.08,25.43 7.07,0.9 14.11,1.23 21.07,1 -0.71,-10.82 6.3,-20.98 17.2,-23.88 3.88,-1.04 7.8,-1.02 11.46,-0.14 7.34,1.77 13.6,7.06 16.38,14.45 7.79,-3.15 15.27,-7.04 22.32,-11.6 -5.94,-9.01 -4.95,-21.24 2.99,-29.15 5.96,-5.94 14.37,-7.99 22.01,-6.13 3.05,0.75 5.98,2.12 8.59,4.11 4.36,-5.78 8.28,-11.96 11.68,-18.51 -9.13,-5.05 -14.02,-15.82 -11.21,-26.32 2.99,-11.16 13.68,-18.23 24.87,-17.06 1.56,-11.8 1.48,-23.53 -0.09,-34.94 -11.84,2.2 -23.59,-5.03 -26.77,-16.83 -2.98,-11.03 2.55,-22.33 12.57,-27.01 -3.5,-6.58 -7.54,-12.88 -12.1,-18.79 -9.07,6.25 -21.62,5.35 -29.71,-2.71 -7.6,-7.57 -8.86,-19.08 -3.79,-27.94 -6.27,-4 -12.94,-7.52 -19.97,-10.46 z m -39.05,76.32 c 0.78,0.21 1.54,0.43 2.3,0.68 3.03,0.98 5.91,2.25 8.6,3.76 0.67,0.38 1.33,0.77 1.98,1.18 1.3,0.82 2.54,1.69 3.74,2.62 0.59,0.47 1.17,0.95 1.75,1.45 0.28,0.24 0.57,0.5 0.85,0.75 0.04,0.04 0.08,0.08 0.11,0.12 0.38,0.34 0.76,0.69 1.13,1.05 0.4,0.39 0.79,0.78 1.18,1.19 1.04,1.08 2.04,2.21 2.96,3.38 0.35,0.45 0.69,0.9 1.03,1.35 0.2,0.28 0.41,0.55 0.61,0.84 0.26,0.38 0.51,0.77 0.77,1.16 0.47,0.72 0.94,1.46 1.38,2.21 0.28,0.49 0.54,0.98 0.8,1.47 0.01,0.01 0.01,0.02 0.02,0.03 0.12,0.23 0.24,0.45 0.36,0.68 0.3,0.6 0.59,1.19 0.87,1.8 0.07,0.17 0.15,0.33 0.23,0.5 0.22,0.52 0.45,1.04 0.66,1.56 0.26,0.65 0.5,1.3 0.73,1.96 0.33,0.93 0.63,1.87 0.9,2.82 0.15,0.54 0.28,1.08 0.42,1.63 0.35,1.46 0.63,2.93 0.85,4.42 0.09,0.66 0.18,1.31 0.24,1.98 0.01,0.06 0,0.13 0.01,0.2 0.05,0.6 0.09,1.2 0.13,1.8 0,0.08 0.01,0.16 0.01,0.25 0.01,0.23 0.01,0.47 0.01,0.71 0.02,0.58 0.05,1.17 0.04,1.75 0,0.17 0,0.33 -0.01,0.49 0,0.41 -0.03,0.83 -0.04,1.24 -0.03,0.51 -0.05,1.03 -0.09,1.54 v 0.08 c -0.01,0.05 -0.02,0.09 -0.02,0.14 -0.05,0.59 -0.1,1.18 -0.17,1.78 0,0.04 -0.01,0.08 -0.01,0.12 -0.02,0.13 -0.05,0.26 -0.06,0.39 -0.08,0.54 -0.15,1.09 -0.24,1.64 -0.12,0.68 -0.24,1.36 -0.39,2.04 -0.16,0.77 -0.35,1.56 -0.56,2.33 -0.41,1.55 -0.89,3.04 -1.45,4.51 0,0.01 -0.01,0.02 -0.01,0.02 -0.28,0.73 -0.57,1.45 -0.88,2.16 0,0 0,0.01 -0.01,0.02 -0.31,0.7 -0.64,1.4 -0.98,2.08 -0.01,0.01 0,0.02 -0.01,0.02 -0.17,0.35 -0.35,0.68 -0.53,1.02 -0.18,0.33 -0.37,0.67 -0.56,1 v 0.02 c -0.38,0.66 -0.77,1.32 -1.18,1.96 v 0.02 c -0.82,1.28 -1.7,2.53 -2.63,3.71 -0.93,1.2 -1.91,2.32 -2.95,3.41 v 0.02 c -1.03,1.08 -2.12,2.11 -3.25,3.08 0,0.01 0,0.02 -0.01,0.02 -0.56,0.49 -1.13,0.95 -1.71,1.41 -0.01,0 -0.01,0.01 -0.01,0.02 -0.58,0.45 -1.19,0.89 -1.8,1.32 v 0.02 c -2.44,1.72 -5.04,3.22 -7.75,4.45 -2.72,1.24 -5.57,2.22 -8.5,2.92 -1.46,0.35 -2.95,0.62 -4.45,0.83 -1.51,0.21 -3.02,0.34 -4.55,0.4 -0.76,0.03 -1.54,0.04 -2.31,0.03 -3.08,-0.03 -6.21,-0.37 -9.33,-1.03 -0.78,-0.17 -1.55,-0.36 -2.33,-0.57 -0.78,-0.21 -1.54,-0.43 -2.3,-0.68 -3.03,-0.98 -5.91,-2.25 -8.6,-3.76 -0.67,-0.38 -1.33,-0.77 -1.98,-1.18 -1.3,-0.82 -2.54,-1.69 -3.74,-2.62 -1.19,-0.93 -2.35,-1.92 -3.44,-2.95 -0.55,-0.52 -1.07,-1.06 -1.59,-1.6 -0.52,-0.55 -1.03,-1.11 -1.52,-1.67 -0.5,-0.57 -0.97,-1.14 -1.43,-1.72 -0.93,-1.18 -1.8,-2.39 -2.61,-3.64 -0.4,-0.63 -0.79,-1.27 -1.16,-1.91 -0.38,-0.65 -0.74,-1.29 -1.08,-1.96 -0.01,0 0,-0.01 0,-0.02 -0.34,-0.66 -0.68,-1.33 -0.99,-2.01 -0.31,-0.67 -0.61,-1.37 -0.89,-2.06 -0.28,-0.69 -0.54,-1.39 -0.78,-2.09 -0.49,-1.42 -0.91,-2.86 -1.27,-4.32 -0.35,-1.46 -0.64,-2.93 -0.85,-4.42 0,-0.01 0.01,-0.02 0.01,-0.02 -0.11,-0.75 -0.21,-1.49 -0.28,-2.25 l 0.01,-0.01 c -0.07,-0.76 -0.11,-1.51 -0.15,-2.27 -0.03,-0.75 -0.03,-1.49 -0.03,-2.24 0,-0.06 0.01,-0.11 0.01,-0.16 0,-0.69 0.02,-1.39 0.06,-2.07 0.01,-0.18 0.03,-0.35 0.04,-0.52 0.03,-0.49 0.06,-0.97 0.1,-1.45 0.03,-0.25 0.05,-0.49 0.08,-0.74 0,-0.01 0.01,-0.03 0.01,-0.05 0.08,-0.64 0.17,-1.28 0.27,-1.92 0.02,-0.11 0.03,-0.22 0.05,-0.33 0.11,-0.65 0.25,-1.31 0.38,-1.96 0.01,-0.06 0.01,-0.11 0.03,-0.16 0.16,-0.78 0.35,-1.55 0.56,-2.32 0.2,-0.78 0.43,-1.54 0.67,-2.3 0.24,-0.75 0.5,-1.49 0.78,-2.22 0,-0.01 0,-0.01 0.01,-0.02 0.27,-0.73 0.57,-1.45 0.88,-2.16 v -0.02 c 0.32,-0.7 0.65,-1.4 0.99,-2.08 0,-0.01 0,-0.02 0.01,-0.02 0.34,-0.69 0.71,-1.36 1.09,-2.02 v -0.02 c 0.38,-0.66 0.77,-1.32 1.18,-1.96 v -0.02 c 0.41,-0.64 0.83,-1.27 1.26,-1.89 0.33,-0.46 0.68,-0.92 1.02,-1.37 l 0.12,-0.15 c 0.17,-0.22 0.33,-0.44 0.5,-0.65 0.27,-0.34 0.54,-0.66 0.82,-0.98 0.18,-0.23 0.37,-0.44 0.56,-0.66 0.42,-0.48 0.86,-0.96 1.3,-1.42 v -0.02 c 0.52,-0.54 1.04,-1.07 1.58,-1.58 0.55,-0.52 1.1,-1.03 1.67,-1.52 0.57,-0.49 1.14,-0.95 1.72,-1.41 0.01,0 0,-0.01 0.01,-0.02 0.58,-0.45 1.19,-0.89 1.8,-1.32 v -0.02 c 0.61,-0.43 1.23,-0.84 1.86,-1.24 1.89,-1.21 3.85,-2.28 5.89,-3.21 2.72,-1.24 5.57,-2.22 8.5,-2.92 1.46,-0.35 2.95,-0.62 4.45,-0.83 1.51,-0.21 3.02,-0.34 4.55,-0.4 0.76,-0.03 1.54,-0.04 2.31,-0.03 3.08,0.03 6.21,0.37 9.32,1.04 0.78,0.16 1.56,0.35 2.34,0.56 z"
       inkscape:connector-curvature="0"
       style="fill:#c0c0c0" />
    <path
       id="path3398"
       d="m 390.95,307.68 c -57.41,-15.39 -116.43,18.56 -131.76,75.75 -15.32,57.2 18.82,116.09 76.23,131.47 57.41,15.38 116.45,-18.54 131.77,-75.73 15.33,-57.2 -18.83,-116.11 -76.24,-131.49 z m -15.69,58.63 c 0.78,0.21 1.54,0.44 2.3,0.68 3.03,0.98 5.91,2.25 8.6,3.76 0.67,0.38 1.33,0.78 1.98,1.18 1.3,0.82 2.54,1.7 3.73,2.63 1.8,1.39 3.47,2.92 5.03,4.55 1.04,1.08 2.04,2.21 2.96,3.39 1.39,1.76 2.66,3.62 3.79,5.55 2.24,3.88 3.92,8.07 4.99,12.45 0.35,1.46 0.63,2.93 0.84,4.43 0.75,5.25 0.59,10.7 -0.58,16.14 -0.16,0.77 -0.35,1.56 -0.56,2.33 -0.41,1.55 -0.89,3.05 -1.45,4.52 -0.01,0 -0.01,0.01 -0.01,0.01 -0.28,0.73 -0.57,1.45 -0.88,2.16 0,0.01 0,0.01 -0.01,0.02 -0.31,0.71 -0.64,1.4 -0.98,2.09 -0.01,0 -0.01,0.01 -0.01,0.02 -0.34,0.68 -0.71,1.35 -1.09,2.02 v 0.01 c -0.38,0.67 -0.77,1.32 -1.18,1.96 v 0.02 c -1.64,2.57 -3.51,4.95 -5.58,7.12 v 0.02 c -1.04,1.09 -2.12,2.11 -3.25,3.09 0,0 0,0.01 -0.01,0.02 -0.56,0.48 -1.13,0.94 -1.72,1.4 v 0.02 c -0.58,0.46 -1.2,0.89 -1.8,1.32 0,0 0,0.02 -0.01,0.02 -1.21,0.86 -2.46,1.66 -3.75,2.4 -0.65,0.38 -1.31,0.73 -1.98,1.07 -0.66,0.34 -1.33,0.68 -2.01,0.98 -2.72,1.24 -5.57,2.22 -8.5,2.92 -1.46,0.35 -2.95,0.63 -4.45,0.83 -1.51,0.21 -3.02,0.35 -4.55,0.41 -0.77,0.03 -1.54,0.04 -2.31,0.03 -3.08,-0.04 -6.21,-0.37 -9.33,-1.04 -0.78,-0.17 -1.55,-0.36 -2.33,-0.57 -0.78,-0.2 -1.54,-0.43 -2.3,-0.67 -3.03,-0.98 -5.91,-2.25 -8.6,-3.77 -0.67,-0.38 -1.33,-0.77 -1.98,-1.18 -1.3,-0.82 -2.54,-1.69 -3.74,-2.62 -1.79,-1.4 -3.47,-2.93 -5.03,-4.55 -1.04,-1.09 -2.03,-2.22 -2.96,-3.39 -1.85,-2.35 -3.46,-4.87 -4.84,-7.52 -0.34,-0.67 -0.68,-1.33 -0.99,-2.01 -1.24,-2.72 -2.23,-5.55 -2.94,-8.48 -0.35,-1.46 -0.64,-2.92 -0.85,-4.42 0,-0.01 0.01,-0.01 0.01,-0.02 -0.11,-0.74 -0.21,-1.49 -0.28,-2.24 0,-0.01 0.01,-0.02 0.01,-0.02 -0.07,-0.76 -0.11,-1.51 -0.15,-2.27 -0.15,-3.82 0.16,-7.71 0.99,-11.6 0.17,-0.77 0.36,-1.55 0.57,-2.32 0.41,-1.56 0.89,-3.06 1.46,-4.54 0.27,-0.73 0.57,-1.45 0.88,-2.15 v -0.02 c 0.31,-0.71 0.65,-1.4 0.99,-2.09 0,-0.01 0,-0.01 0.01,-0.02 0.34,-0.69 0.71,-1.36 1.09,-2.02 v -0.02 c 0.38,-0.66 0.77,-1.31 1.18,-1.95 v -0.02 c 0.41,-0.65 0.82,-1.27 1.26,-1.9 1.32,-1.86 2.76,-3.61 4.32,-5.25 0.52,-0.54 1.04,-1.06 1.58,-1.58 0.55,-0.52 1.1,-1.03 1.67,-1.52 0.57,-0.49 1.14,-0.95 1.72,-1.4 0.01,-0.01 0,-0.02 0.01,-0.02 0.58,-0.46 1.19,-0.9 1.8,-1.33 v -0.01 c 0.61,-0.44 1.23,-0.85 1.86,-1.25 0.63,-0.4 1.25,-0.78 1.9,-1.15 0.65,-0.38 1.31,-0.73 1.98,-1.08 0.66,-0.34 1.33,-0.67 2.01,-0.98 2.72,-1.23 5.57,-2.21 8.5,-2.91 1.46,-0.35 2.95,-0.63 4.45,-0.84 1.5,-0.2 3.02,-0.34 4.55,-0.4 0.76,-0.03 1.54,-0.04 2.31,-0.03 3.08,0.03 6.21,0.37 9.32,1.04 0.78,0.17 1.56,0.35 2.34,0.56 z"
       inkscape:connector-curvature="0"
       style="opacity:0.79393999;fill:#a9a9a9" />
    <path
       id="path3400"
       d="m 387.33,321.17 c -49.93,-13.38 -101.27,16.14 -114.6,65.89 -13.33,49.75 16.37,100.97 66.31,114.35 49.93,13.38 101.28,-16.12 114.61,-65.87 13.33,-49.75 -16.38,-100.99 -66.32,-114.37 z m -12.07,45.14 c 24.92,6.68 39.73,32.26 33.08,57.09 -6.65,24.82 -32.27,39.55 -57.19,32.87 -24.92,-6.67 -39.74,-32.26 -33.08,-57.08 6.65,-24.83 32.27,-39.55 57.19,-32.88 z"
       style="opacity:0.79393999;fill:url(#radialGradient3009)"
       inkscape:connector-curvature="0" />
    <path
       id="path3402"
       d="m 388.88,274.48 c -60.1,0 -108.88,48.77 -108.88,108.86 0,60.09 48.78,108.89 108.88,108.89 60.09,0 108.87,-48.76 108.87,-108.85 v -0.04 c 0,-60.09 -48.78,-108.86 -108.87,-108.86 z m 0,24.66 c 46.57,0 84.37,37.74 84.37,84.24 0,46.5 -37.8,84.2 -84.37,84.2 -46.58,0 -84.38,-37.74 -84.38,-84.24 0,-46.5 37.8,-84.2 84.38,-84.2 z"
       transform="matrix(0.50862,0.13628,-0.13558,0.506,217.38,164.31)"
       inkscape:connector-curvature="0"
       style="opacity:0.58788003;fill:#696969;filter:url(#filter3340)" />
    <path
       id="path3404"
       d="m 377.63,357.4 c -29.81,-7.99 -60.47,9.67 -68.44,39.41 -7.97,29.74 9.75,60.38 39.56,68.37 29.82,7.99 60.48,-9.66 68.45,-39.41 l 0.01,-0.02 c 7.97,-29.74 -9.76,-60.36 -39.58,-68.35 z m -3.27,12.2 c 23.11,6.19 36.85,29.9 30.69,52.92 -6.17,23.01 -29.92,36.65 -53.03,30.46 -23.1,-6.19 -36.85,-29.9 -30.68,-52.91 6.17,-23.02 29.92,-36.66 53.02,-30.47 z"
       inkscape:connector-curvature="0"
       style="fill:#c0c0c0" />
  </g>
  <metadata
     id="metadata27">
    <rdf:RDF>
      <cc:Work>
        <dc:format>image/svg+xml</dc:format>
        <dc:type
           rdf:resource="http://purl.org/dc/dcmitype/StillImage" />
        <cc:license
           rdf:resource="http://creativecommons.org/licenses/publicdomain/" />
        <dc:publisher>
          <cc:Agent
             rdf:about="http://openclipart.org/">
            <dc:title>Openclipart</dc:title>
          </cc:Agent>
        </dc:publisher>
        <dc:title></dc:title>
        <dc:date>2008-01-30T19:49:13</dc:date>
        <dc:description>rodas dentadas, engrenagens</dc:description>
        <dc:source>http://openclipart.org/detail/12273/gears-by-felipecaparelli-12273</dc:source>
        <dc:creator>
          <cc:Agent>
            <dc:title>felipecaparelli</dc:title>
          </cc:Agent>
        </dc:creator>
        <dc:subject>
          <rdf:Bag>
            <rdf:li>clip art</rdf:li>
            <rdf:li>clipart</rdf:li>
            <rdf:li>gear</rdf:li>
            <rdf:li>gears</rdf:li>
            <rdf:li>mechanical</rdf:li>
          </rdf:Bag>
        </dc:subject>
      </cc:Work>
      <cc:License
         rdf:about="http://creativecommons.org/licenses/publicdomain/">
        <cc:permits
           rdf:resource="http://creativecommons.org/ns#Reproduction" />
        <cc:permits
           rdf:resource="http://creativecommons.org/ns#Distribution" />
        <cc:permits
           rdf:resource="http://creativecommons.org/ns#DerivativeWorks" />
      </cc:License>
    </rdf:RDF>
  </metadata>
</svg>
