<?xml version="1.0" encoding="UTF-8" standalone="no"?>
<svg
   xmlns:dc="http://purl.org/dc/elements/1.1/"
   xmlns:cc="http://creativecommons.org/ns#"
   xmlns:rdf="http://www.w3.org/1999/02/22-rdf-syntax-ns#"
   xmlns:svg="http://www.w3.org/2000/svg"
   xmlns="http://www.w3.org/2000/svg"
   xmlns:xlink="http://www.w3.org/1999/xlink"
   xmlns:sodipodi="http://sodipodi.sourceforge.net/DTD/sodipodi-0.dtd"
   xmlns:inkscape="http://www.inkscape.org/namespaces/inkscape"
   id="Layer_1"
   space="preserve"
   sodipodi:version="0.32"
   viewBox="0 0 201 201"
   version="1.1"
   sodipodi:docname="tools.svg"
   inkscape:version="0.48.4 r9939"
   width="100%"
   height="100%"
   inkscape:export-filename="/home/crep/git/xml-editor/icons/xml-editor/48x48/tools.png"
   inkscape:export-xdpi="21.6"
   inkscape:export-ydpi="21.6">
  <defs
     id="defs90">
    <linearGradient
       id="XMLID_7_"
       y2="63.737"
       gradientUnits="userSpaceOnUse"
       y1="63.737"
       x2="133.89"
       x1="7.0521998">
      <stop
         id="stop6"
         stop-color="#EAEAEA"
         offset="0" />
      <stop
         id="stop8"
         stop-color="#E1E1E1"
         offset=".1981" />
      <stop
         id="stop10"
         stop-color="#C9C8C8"
         offset=".5226" />
      <stop
         id="stop12"
         stop-color="#A1A0A0"
         offset=".9311" />
      <stop
         id="stop14"
         stop-color="#9A9999"
         offset="1" />
    </linearGradient>
    <linearGradient
       id="XMLID_8_"
       y2="455.82999"
       gradientUnits="userSpaceOnUse"
       y1="455.82999"
       gradientTransform="matrix(-211.4,211.92,211.92,211.4,-146200,-46500)"
       x2="-233.92"
       x1="-235.55">
      <stop
         id="stop19"
         stop-color="#fff"
         offset="0" />
      <stop
         id="stop21"
         offset="1" />
    </linearGradient>
    <linearGradient
       id="XMLID_10_"
       y2="455.60001"
       gradientUnits="userSpaceOnUse"
       y1="455.60001"
       gradientTransform="matrix(-211.4,211.92,211.92,211.4,-146200,-46500)"
       x2="-233.78"
       x1="-235.61">
      <stop
         id="stop40"
         stop-color="#C6C6C6"
         offset="0" />
      <stop
         id="stop42"
         offset="1" />
    </linearGradient>
    <linearGradient
       id="XMLID_11_"
       y2="455.82001"
       gradientUnits="userSpaceOnUse"
       y1="455.82001"
       gradientTransform="matrix(-211.4,211.92,211.92,211.4,-146200,-46500)"
       x2="-233.92999"
       x1="-235.53999">
      <stop
         id="stop81"
         stop-color="#C6C6C6"
         offset="0" />
      <stop
         id="stop83"
         offset="1" />
    </linearGradient>
    <linearGradient
       inkscape:collect="always"
       xlink:href="#XMLID_7_"
       id="linearGradient3054"
       gradientUnits="userSpaceOnUse"
       x1="7.0521998"
       y1="63.737"
       x2="133.89"
       y2="63.737" />
    <linearGradient
       inkscape:collect="always"
       xlink:href="#XMLID_10_"
       id="linearGradient3056"
       gradientUnits="userSpaceOnUse"
       gradientTransform="matrix(-211.4,211.92,211.92,211.4,-146200,-46500)"
       x1="-235.61"
       y1="455.60001"
       x2="-233.78"
       y2="455.60001" />
    <linearGradient
       inkscape:collect="always"
       xlink:href="#XMLID_11_"
       id="linearGradient3058"
       gradientUnits="userSpaceOnUse"
       gradientTransform="matrix(-211.4,211.92,211.92,211.4,-146200,-46500)"
       x1="-235.53999"
       y1="455.82001"
       x2="-233.92999"
       y2="455.82001" />
  </defs>
  <sodipodi:namedview
     id="base"
     bordercolor="#666666"
     borderopacity="1.0"
     pagecolor="#ffffff"
     showgrid="false"
     fit-margin-top="0"
     fit-margin-left="0"
     fit-margin-right="0"
     fit-margin-bottom="0"
     inkscape:zoom="0.65368212"
     inkscape:cx="15.823332"
     inkscape:cy="46.981844"
     inkscape:window-width="1625"
     inkscape:window-height="1026"
     inkscape:window-x="55"
     inkscape:window-y="24"
     inkscape:window-maximized="1"
     inkscape:current-layer="Layer_1" />
  <g
     id="g3028"
     transform="matrix(1.2480329,0,0,1.2480329,16.543185,20.847963)">
    <path
       d="M 109.08,81.232 C 99.628,71.791 87.781,65.423 77.141,57.501 71.271,53.131 61.832,47.218 60.469,39.35 59.621,34.454 62.06,29.586 61.355,24.411 60.637,19.12 58.333,14.101 54.805,10.095 47.196,1.455 34.622,-1.511 23.956,2.871 l 11.407,11.407 c 5.395,5.396 4.612,9.253 -0.65,14.5 -4.896,4.881 -8.723,4.604 -13.444,-0.112 -3.937,-3.932 -7.871,-7.863 -11.808,-11.795 -4.668,10.252 -2.406,22.596 5.546,30.545 3.756,3.754 8.593,6.372 13.8,7.438 2.498,0.511 5.071,0.67 7.615,0.471 2.709,-0.213 6.506,-2.252 8.979,-1.574 8.634,2.359 14.464,10.677 19.334,17.692 7.66,11.027 12.911,23.254 22.639,32.767 8.008,7.83 16.846,15.99 27.106,20.8 7.81,3.66 13.9,0.88 18.28,-6.73 2.51,-4.35 0.41,-8.42 -2.1,-12.33 -5.88,-9.16 -13.93,-17.063 -21.58,-24.718 m -3.15,22.168 c -4.84,0 -4.83,-7.514 0,-7.514 4.84,0.034 4.86,7.514 0,7.514"
       id="path16"
       style="fill:url(#linearGradient3054)"
       inkscape:connector-curvature="0" />
    <path
       style="fill:#888a85;stroke:#babdb6"
       d="m 72.698,52.866 c -0.396,0.395 -0.793,0.792 -1.188,1.188 3.334,2.845 5.444,2.622 9.313,5.351 -0.281,0.296 -0.563,0.594 -0.845,0.889 14.662,9.591 27.492,19.62 39.222,32.692 4.78,5.243 10.2,10.934 13.05,17.544 2.12,4.92 -0.38,8.21 -3.89,11.8 -8.46,8.64 -19.68,-1.03 -27.11,-6.9 -14.178,-11.2 -26.268,-25.019 -34.527,-41.176 -0.34,0.357 -0.681,0.717 -1.021,1.074 -2.014,-4.167 -2.271,-7.269 -4.97,-10.499 -2.109,2.102 2.567,6.314 3.905,8.963 2.299,4.554 5.041,8.8 7.849,13.055 6.597,9.993 14.207,18.423 23.302,26.213 6.212,5.32 13.092,10.9 20.862,13.77 6.67,2.46 11.46,-0.96 15.52,-6.17 7.61,-9.77 -4.98,-21.306 -11.19,-28.184 C 114.46,85.259 107.7,78.095 100.01,72.111 91.229,65.284 81.079,60.148 72.698,52.866 M 34.198,0 c -1.117,0 -12.8,1.62 -10.827,3.456 0.072,0.804 2.794,2.797 3.337,3.34 3.387,3.393 7.798,6.723 10.604,10.615 4.395,4.396 -2.842,12.46 -7.247,14.238 -5.052,2.038 -10.382,-5.742 -13.376,-8.739 -0.644,-0.644 -7.123,-8.213 -7.986,-6.39 -4.167,9.165 -3.038,20.09 2.911,28.199 5.264,7.177 13.789,11.521 22.693,11.521 4.303,0 8.532,-2.432 12.553,-1.151 3.928,1.25 6.672,4.059 9.363,7.074 C 59.74,58.645 47.685,53.515 44.586,52.668 42.863,52.226 38.76,54.272 36.791,54.46 32.901,54.828 28.938,54.326 25.268,52.988 11.355,47.919 4.376,32.118 9.826,18.401 c 3.97,3.973 7.942,7.944 11.914,11.916 5.405,5.404 9.86,2.75 14.476,-1.867 2.335,-2.335 4.793,-4.618 4.255,-8.286 C 38.904,17.941 37.158,16.076 35.243,14.161 31.65,10.57 28.057,6.977 24.464,3.384 c 0.957,0.367 1.845,0.86 2.663,1.481 -0.533,-0.533 -1.064,-1.066 -1.598,-1.598 13.529,-4.813 28.722,2.306 33.642,15.822 2.453,6.74 0.117,11.735 0.143,18.328 0.494,3.318 5.677,15.986 9.543,12.119 C 65.163,46.288 61.95,43.532 61.166,38.523 60.736,35.768 62.097,33.164 62.339,30.37 62.661,26.625 62.187,22.807 60.997,19.245 57.187,7.824 46.21,0 34.198,0"
       id="path23"
       inkscape:connector-curvature="0" />
    <path
       d="M 11.881,21.244 C 11.658,20.363 11.099,19.853 10.204,19.714 7.799,26.501 8.761,34.251 12.493,40.375 9.501,34.335 9.228,27.417 11.881,21.244 m 48.25,6.359 C 60.139,19.719 56.263,12.224 49.937,7.547 47.027,5.396 43.665,3.873 40.131,3.1 38.507,2.744 26.703,1.689 26.726,3.943 c 0.036,3.46 8.174,2.006 9.697,2.122 4.861,0.367 9.566,2.182 13.398,5.194 8.738,6.87 11.665,19.119 6.707,29.131 2.335,-3.845 3.618,-8.284 3.603,-12.787"
       id="path25"
       inkscape:connector-curvature="0"
       style="fill:#e5e5e5" />
    <path
       d="m 38.564,31.626 c 1.519,-1.519 3.918,-3.793 4.301,-6.057 0.645,-3.792 -5.041,1.243 -5.321,1.585 -1.737,2.13 -3.398,4.283 -5.642,5.915 -0.506,0.369 -3.112,1.376 -3.309,2.022 -0.244,0.804 2.544,0.734 2.758,0.709 2.809,-0.337 5.281,-2.24 7.213,-4.174"
       id="path27"
       inkscape:connector-curvature="0"
       style="fill:#e5e5e5" />
    <path
       d="M 24.464,3.383 C 29.86,8.777 36.065,13.917 40.471,20.163 39.99,16.926 36.875,14.612 34.706,12.442 31.753,9.49 28.499,4.833 24.464,3.383"
       id="path44"
       style="fill:url(#linearGradient3056)"
       inkscape:connector-curvature="0" />
    <path
       d="m 42.396,24.593 c 0.099,0.524 0.195,1.046 0.293,1.57 0.357,-0.72 0.258,-1.242 -0.293,-1.57"
       id="path46"
       inkscape:connector-curvature="0"
       style="fill:#b2b2b2" />
    <path
       d="M 26.256,35.833 C 25.233,36.858 8.81,20.486 9.858,19.434 10.22,19.071 26.61,35.48 26.256,35.833"
       id="path48"
       inkscape:connector-curvature="0"
       style="fill:#e5e5e5" />
    <path
       d="M 131.96,114.9 C 135.58,111.26 97.052,77.087 93.037,73.809 83.307,65.863 72.062,59.95 63.28,50.795 61.683,49.13 59.968,47.282 59.049,45.131 c -0.023,-0.059 -0.444,-1.816 -0.221,-1.7 0.173,0.09 -0.377,0.693 -0.418,0.734 -0.255,0.259 8.754,8.281 9.283,8.685 10.813,8.242 22.997,14.23 33.537,22.948 8.87,7.343 17.26,15.537 24.24,24.722 1.53,2.02 9.45,11.42 6.49,14.38"
       id="path50"
       inkscape:connector-curvature="0"
       style="fill:#e5e5e5" />
    <path
       d="m 99.574,88.352 c -1.573,0 -3.071,0.258 -4.547,0.798 4.688,0 8.163,-0.436 12.243,2.703 2.82,2.172 4.73,5.209 6.45,8.277 0.43,0.79 2.7,6.7 3.82,6.7 2.61,0 -3.36,-10.186 -3.79,-10.702 -3.57,-4.272 -8.39,-7.776 -14.176,-7.776"
       id="path52"
       inkscape:connector-curvature="0"
       style="fill:#9a9a9a" />
    <path
       d="m 104.4,107.66 c 2.23,1.54 4.88,2.21 7.55,2.33 0.59,0.02 5.01,-0.58 5.31,0.13 1.96,4.67 -11.76,1.4 -12.76,0.82 -6.157,-3.51 -11.054,-10.34 -11.105,-17.59 -0.03,-3.91 1.366,-6.361 1.87,-0.955 0.6,6.462 3.805,11.565 9.135,15.265"
       id="path54"
       inkscape:connector-curvature="0"
       style="fill:#e5e5e5" />
    <path
       style="fill:#3465a4"
       d="m 56.106,65.645 c 8.814,8.784 -12.75,27.312 -17.566,32.206 -7.438,7.559 -15.314,15.929 -24.656,21.179 -3.08,1.74 -7.064,3.34 -10.242,0.96 -10.102,-7.56 8.551,-24.703 13.17,-29.574 8.061,-8.503 16.708,-17.64 26.902,-23.634 3.507,-2.063 8.913,-4.63 12.392,-1.137"
       id="path56"
       inkscape:connector-curvature="0" />
    <path
       style="fill:#204a87"
       d="m 56.106,65.645 c -0.554,-0.394 -1.109,-0.787 -1.663,-1.181 6.218,9.163 -13.687,26.113 -18.559,31.057 -7.218,7.329 -14.752,15.169 -23.603,20.559 -2.924,1.78 -7.023,3.94 -10.417,2.1 7.942,11.46 28.348,-12.07 32.98,-16.63 5.05,-4.977 30.806,-26.395 21.262,-35.905"
       id="path58"
       inkscape:connector-curvature="0" />
    <path
       style="fill:#729fcf"
       d="M 50.061,68.252 C 51.251,69.441 30.619,87.524 29.404,88.727 22.778,95.291 16.288,102 10.089,108.97 9.55,109.57 6.757,113.68 5.577,113.1 0.295,110.54 17.778,93.48 18.911,92.3 21.175,89.94 44.857,63.043 50.061,68.252"
       id="path60"
       inkscape:connector-curvature="0" />
    <path
       style="fill:#204a87;stroke:#3465a4"
       d="M 21.607,84.615 C 17.419,88.803 -11.748,116.19 5.3,121.54 c 6.423,2.02 14.411,-5.49 18.82,-9.24 8.531,-7.25 16.578,-15.298 23.931,-23.741 4.321,-4.96 15.407,-16.414 8.495,-23.351 C 47.303,55.966 26.739,79.484 21.607,84.615 M 3.073,118.68 C -2.23,113.43 5.798,104.13 9.031,100.11 16.836,90.419 25.93,81.343 35.524,73.426 39.601,70.063 52.655,58.844 57.03,67.883 58.674,71.28 56.197,75.452 54.427,78.251 48.19,88.118 39.26,96.563 30.868,104.55 c -4.577,4.36 -20.057,21.9 -27.795,14.13"
       id="path62"
       inkscape:connector-curvature="0" />
    <path
       style="fill:#c6c6c6;stroke:#888a85"
       d="m 112.7,9.215 c 5.44,5.441 -1.74,9.104 -5.59,12.961 -3.62,3.63 -8.277,4.547 -12.034,8.308 -4.229,4.232 -8.46,8.463 -12.689,12.694 -6.863,6.863 -13.729,13.727 -20.594,20.589 -1.478,1.478 -2.954,2.954 -4.431,4.43 -0.674,0.675 -1.538,0.741 -2.424,0.407 -3.403,-1.283 -0.995,-4.162 0.5,-5.655 9.582,-9.577 19.165,-19.154 28.745,-28.734 2.343,-2.342 4.685,-4.684 7.026,-7.025 1.445,-1.444 3.574,-2.957 4.414,-4.863 0.812,-1.843 0.643,-4.465 2.143,-5.967 4.304,-4.302 8.814,-13.145 14.934,-7.145"
       id="path64"
       inkscape:connector-curvature="0" />
    <path
       d="M 94.426,26.611 C 94.929,27.114 55.538,66.55 55.013,66.025 54.775,65.787 93.494,25.769 94.426,26.611"
       id="path66"
       inkscape:connector-curvature="0"
       style="fill:#ffffff" />
    <path
       d="M 98.729,26.611 C 92.322,28.25 56.567,69.364 55.83,68.633 61.326,66.75 97.841,25.723 98.729,26.611"
       id="path68"
       inkscape:connector-curvature="0"
       style="fill:#9a9a9a" />
    <path
       d="m 112.61,13.094 c 0,4.24 -13.416,13.159 -13.416,5.804 0,-0.594 5.556,-1.447 6.936,-2.331 0.5,-0.321 6.48,-4.21 6.48,-3.473"
       id="path70"
       inkscape:connector-curvature="0"
       style="fill:#e5e5e5" />
    <path
       d="m 108.61,7.109 c -1.54,0 -10.286,9.531 -10.174,9.645 1.015,1.012 9.114,-9.645 10.174,-9.645"
       id="path72"
       inkscape:connector-curvature="0"
       style="fill:#9a9a9a" />
    <path
       d="m 108.06,7.95 c 0.31,-0.316 3.72,4.755 4.41,4.755 0.12,-2.107 -2.15,-4.748 -4.41,-4.755"
       id="path74"
       inkscape:connector-curvature="0"
       style="fill:#dddddd" />
    <path
       d="m 108.06,7.95 c -0.26,0 -0.55,0.304 0,0"
       id="path76"
       inkscape:connector-curvature="0"
       style="fill:#c4c4c4" />
    <path
       d="m 73.073,59.401 c -2.022,2.023 -4.045,4.047 -6.067,6.071 -3.913,3.916 -2.947,3.583 -0.285,8.781 3.62,-3.813 7.24,-7.624 10.86,-11.438 -1.519,-1.117 -3.024,-2.252 -4.508,-3.414 m 2.281,-2.284 c -0.203,0.202 -0.407,0.407 -0.609,0.609 1.603,1.018 3.226,2 4.867,2.954 0.121,-0.128 0.243,-0.258 0.365,-0.386 -1.565,-1.024 -3.115,-2.071 -4.623,-3.177"
       id="path78"
       inkscape:connector-curvature="0"
       style="fill:#9a9a9a" />
    <path
       d="m 63.712,68.77 c -1.454,1.672 1.062,4.641 1.989,6.558 2.214,-1.388 -0.989,-5.03 -1.989,-6.558 M 76.273,56.196 c -0.308,0.307 -0.612,0.614 -0.919,0.921 1.721,1.264 3.743,3.759 5.468,2.288 -1.516,-1.07 -3.033,-2.14 -4.549,-3.209"
       id="path85"
       style="fill:url(#linearGradient3058)"
       inkscape:connector-curvature="0" />
    <path
       d="m 74.745,57.726 c -0.633,0.362 -1.153,1.155 -1.672,1.676 2.27,1.775 4.613,5.014 6.539,1.278 -1.642,-0.954 -3.265,-1.937 -4.867,-2.954"
       id="path87"
       inkscape:connector-curvature="0"
       style="fill:#b2b2b2" />
  </g>
  <metadata
     id="metadata44">
    <rdf:RDF>
      <cc:Work>
        <dc:format>image/svg+xml</dc:format>
        <dc:type
           rdf:resource="http://purl.org/dc/dcmitype/StillImage" />
        <cc:license
           rdf:resource="http://creativecommons.org/licenses/publicdomain/" />
        <dc:publisher>
          <cc:Agent
             rdf:about="http://openclipart.org/">
            <dc:title>Openclipart</dc:title>
          </cc:Agent>
        </dc:publisher>
        <dc:title>Architetto -- utensili chiave e cacci</dc:title>
        <dc:date>2010-03-28T12:25:31</dc:date>
        <dc:description>Drawing by Francesco 'Architetto' Rollandin. From OCAL 0.18 release.</dc:description>
        <dc:source>http://openclipart.org/detail/34951/architetto----utensili-chiave-e-cacci-by-anonymous</dc:source>
        <dc:creator>
          <cc:Agent>
            <dc:title>Anonymous</dc:title>
          </cc:Agent>
        </dc:creator>
        <dc:subject>
          <rdf:Bag>
            <rdf:li>clip art</rdf:li>
            <rdf:li>clipart</rdf:li>
            <rdf:li>icon</rdf:li>
            <rdf:li>screwdiver</rdf:li>
            <rdf:li>settings</rdf:li>
            <rdf:li>spanner</rdf:li>
            <rdf:li>tool</rdf:li>
            <rdf:li>wrench</rdf:li>
          </rdf:Bag>
        </dc:subject>
      </cc:Work>
      <cc:License
         rdf:about="http://creativecommons.org/licenses/publicdomain/">
        <cc:permits
           rdf:resource="http://creativecommons.org/ns#Reproduction" />
        <cc:permits
           rdf:resource="http://creativecommons.org/ns#Distribution" />
        <cc:permits
           rdf:resource="http://creativecommons.org/ns#DerivativeWorks" />
      </cc:License>
    </rdf:RDF>
  </metadata>
  <rect
     style="fill:none;stroke:none;stroke-width:1"
     id="rect3012"
     width="200"
     height="200"
     x="0.49999535"
     y="0.5"
     rx="10"
     ry="10" />
</svg>
